<svg width="470" height="540" viewBox="0 0 470 540" fill="none" xmlns="http://www.w3.org/2000/svg">
<g clip-path="url(#clip0_127_2331)">
<path d="M320.24 105.215V-201.551H460.771V145.427" stroke="#CCDDE2" stroke-width="2.70402" stroke-miterlimit="10"/>
<path d="M334.209 3.988V21.94H352.161V-11.0019H334.209V3.988ZM337.16 -8.06228H349.188V3.988H337.16V-8.06228ZM337.16 6.93325H349.188V18.9947H337.16V6.93325Z" fill="#D7E8F0"/>
<path d="M365.861 3.988V21.94H383.813V-11.0019H365.861V3.988ZM368.823 -8.05106H380.873V3.988H368.823V-8.05106ZM368.823 6.94447H380.873V18.9947H368.823V6.94447Z" fill="#D7E8F0"/>
<path d="M396.648 3.988V21.94H414.6V-11.0019H396.648V3.988ZM399.599 -8.06228H411.65V3.988H399.599V-8.06228ZM399.599 6.93325H411.65V18.9947H399.599V6.93325Z" fill="#D7E8F0"/>
<path d="M425.63 3.988V21.94H443.582V-11.0019H425.63V3.988ZM428.575 -8.06228H440.631V3.988H428.575V-8.06228ZM428.575 6.93325H440.631V18.9947H428.575V6.93325Z" fill="#D7E8F0"/>
<path d="M314.041 381.614C309.301 386.394 304.605 391.712 299.601 396.542C298.225 397.885 296.817 399.183 295.377 400.435C293.778 401.827 292.129 403.151 290.44 404.362C290.317 404.009 290.167 403.666 289.991 403.336C287.158 397.726 279.472 394.175 278.519 387.813C277.649 381.872 283.007 376.413 282.132 370.59C281.144 364.004 273.043 360.094 271.545 353.659C270.592 349.665 271.445 345.059 271.097 340.941C270.699 336.337 269.92 331.774 268.769 327.298C269.33 327.259 269.891 327.242 270.452 327.225C281.84 327.034 293.049 333.43 296.734 342.417C299.702 349.71 298.193 358.074 302.137 364.891C302.374 365.331 302.642 365.755 302.939 366.158C303.462 366.873 304.024 367.559 304.622 368.212L305.873 369.513C306.081 369.721 306.311 369.911 306.518 370.136C306.726 370.36 306.95 370.557 307.158 370.781C309.121 372.66 311.124 374.551 312.426 376.795C312.543 376.99 312.648 377.192 312.74 377.401C312.858 377.609 312.963 377.825 313.054 378.046C313.172 378.287 313.261 378.517 313.346 378.742C313.43 378.966 313.536 379.303 313.626 379.538C313.75 379.959 313.867 380.357 313.957 380.772C313.957 380.879 313.957 380.969 313.991 381.053C314.024 381.137 313.991 381.12 313.991 381.16C313.999 381.193 313.999 381.227 313.991 381.261C313.991 381.333 313.991 381.384 314.024 381.434V381.468C314.016 381.517 314.022 381.568 314.041 381.614V381.614Z" fill="white"/>
<path d="M314.114 381.962H314.131L314.114 381.978V381.962Z" fill="white"/>
<path d="M314.148 381.928C314.288 381.804 314.405 381.72 314.545 381.597C314.428 381.704 314.288 381.821 314.165 381.944C314.165 381.944 314.165 381.944 314.131 381.944L314.148 381.928Z" fill="white"/>
<path d="M354.018 354.31C353.897 356.266 353.897 358.228 354.018 360.184C350.596 361.02 347.224 361.94 343.92 363.05C341.867 363.729 339.853 364.475 337.839 365.328C332.251 367.595 326.99 370.594 322.193 374.248C323.238 372.466 323.974 370.52 324.369 368.492C324.369 368.408 324.403 368.318 324.42 368.217C325.289 364.015 325.357 359.6 327.337 355.584C331.023 348.178 341.8 342.81 353.081 342.462H353.289C354.315 342.462 355.359 342.462 356.402 342.512C355.234 346.36 354.436 350.311 354.018 354.31V354.31Z" fill="white"/>
<path d="M348.891 348.902L343.887 363.028C341.833 363.707 339.819 364.453 337.805 365.306C341.02 359.056 344.7 353.407 348.891 348.902Z" fill="white"/>
<path d="M314.17 381.984C314.17 381.872 314.153 381.76 314.12 381.653C314.153 381.86 314.17 381.984 314.17 381.984Z" fill="white"/>
<path d="M276.118 334.703C287.338 349.25 294.788 373.973 299.601 396.542C298.225 397.885 296.817 399.183 295.377 400.435L276.118 334.703Z" fill="white"/>
<path d="M315.736 359.23C313.492 366.08 313.407 372.997 313.671 377.378C313.739 378.794 313.889 380.204 314.12 381.603L315.736 359.23Z" fill="white"/>
<path d="M314.041 381.614C309.301 386.394 304.605 391.712 299.601 396.542C298.225 397.885 296.817 399.183 295.377 400.435C293.778 401.827 292.129 403.151 290.44 404.362C290.317 404.009 290.167 403.666 289.991 403.336C287.158 397.726 279.472 394.175 278.519 387.813C277.649 381.872 283.007 376.413 282.132 370.59C281.144 364.004 273.043 360.094 271.545 353.659C270.592 349.665 271.445 345.059 271.097 340.941C270.699 336.337 269.92 331.774 268.769 327.298C269.33 327.259 269.891 327.242 270.452 327.225C281.84 327.034 293.049 333.43 296.734 342.417C299.702 349.71 298.193 358.074 302.137 364.891C302.374 365.331 302.642 365.755 302.939 366.158C303.462 366.873 304.024 367.559 304.622 368.212L305.873 369.513C306.081 369.721 306.311 369.911 306.518 370.136C306.726 370.36 306.95 370.557 307.158 370.781C309.121 372.66 311.124 374.551 312.426 376.795C312.543 376.99 312.648 377.192 312.74 377.401C312.858 377.609 312.963 377.825 313.054 378.046C313.172 378.287 313.261 378.517 313.346 378.742C313.43 378.966 313.536 379.303 313.626 379.538C313.75 379.959 313.867 380.357 313.957 380.772C313.957 380.879 313.957 380.969 313.991 381.053C314.024 381.137 313.991 381.12 313.991 381.16C313.999 381.193 313.999 381.227 313.991 381.261C313.991 381.333 313.991 381.384 314.024 381.434V381.468C314.016 381.517 314.022 381.568 314.041 381.614V381.614Z" stroke="#CCDDE2" stroke-width="2.60865" stroke-miterlimit="10"/>
<path d="M324.369 368.509C323.972 370.531 323.236 372.471 322.193 374.248" stroke="#CCDDE2" stroke-width="2.60865" stroke-miterlimit="10"/>
<path d="M354.001 360.184C353.881 358.228 353.881 356.266 354.001 354.31C354.42 350.316 355.218 346.371 356.386 342.529C355.342 342.462 354.299 342.462 353.272 342.479H353.065C341.783 342.826 331.006 348.195 327.32 355.6C325.34 359.617 325.273 364.015 324.403 368.234" stroke="#CCDDE2" stroke-width="2.60865" stroke-miterlimit="10"/>
<path d="M324.375 368.515C324.375 368.425 324.409 368.341 324.425 368.234" stroke="#CCDDE2" stroke-width="2.60865" stroke-miterlimit="10"/>
<path d="M324.42 368.212C324.42 368.313 324.386 368.402 324.369 368.487C323.974 370.516 323.238 372.464 322.193 374.248" stroke="#CCDDE2" stroke-width="2.60865" stroke-miterlimit="10"/>
<path d="M324.375 368.515C324.375 368.425 324.409 368.341 324.425 368.234" stroke="#CCDDE2" stroke-width="2.60865" stroke-miterlimit="10"/>
<path d="M314.114 381.878V381.962" stroke="#CCDDE2" stroke-width="2.60865" stroke-miterlimit="10"/>
<path d="M348.891 348.902C344.7 353.39 341.037 359.056 337.805 365.328" stroke="#CCDDE2" stroke-width="2.60865" stroke-miterlimit="10"/>
<path d="M314.17 381.984C314.17 381.872 314.153 381.76 314.12 381.653C314.153 381.86 314.17 381.984 314.17 381.984Z" stroke="#CCDDE2" stroke-width="2.60865" stroke-miterlimit="10"/>
<path d="M276.118 334.703C287.338 349.25 294.788 373.973 299.601 396.542" stroke="#CCDDE2" stroke-width="2.60865" stroke-miterlimit="10"/>
<path d="M315.736 359.23C313.492 366.08 313.407 372.997 313.671 377.378C313.739 378.794 313.889 380.204 314.12 381.603" stroke="#CCDDE2" stroke-width="2.60865" stroke-miterlimit="10"/>
<path d="M435.066 197.746C442.207 224.495 449.573 253.313 448.967 280.808C448.322 309.783 433.568 334.103 407.134 346.445C389.928 354.473 371.432 355.948 354.001 360.172C350.579 361.008 347.208 361.928 343.903 363.039C341.85 363.718 339.836 364.464 337.822 365.317C332.24 367.588 326.984 370.592 322.193 374.248" stroke="#CCDDE2" stroke-width="2.60865" stroke-miterlimit="10"/>
<path d="M149.624 45.502C149.624 45.502 116.323 37.9005 88.6036 47.2692C85.1504 48.4069 81.8049 49.8487 78.6066 51.5776C62.8986 60.0768 51.0447 76.0485 51.9142 105.058C52.3798 120.205 51.4934 135.144 48.5089 149.64C47.5328 154.345 46.3266 159.002 44.8905 163.609C41.3725 174.875 36.2948 185.594 29.8052 195.452C9.13795 226.789 12.2683 259.361 35.1908 289.565C36.3913 291.147 37.6255 292.712 38.8934 294.244" stroke="#CCDDE2" stroke-width="2.60865" stroke-miterlimit="10"/>
<path d="M392.267 31.6229H187.3C163.66 31.6229 144.496 50.787 144.496 74.4272V267.602C144.496 291.242 163.66 310.406 187.3 310.406H392.267C415.907 310.406 435.071 291.242 435.071 267.602V74.4272C435.071 50.787 415.907 31.6229 392.267 31.6229Z" fill="#FA74BB"/>
<path d="M389.423 27.55H185.903C160.692 27.55 140.255 47.9876 140.255 73.1986V264.758C140.255 289.969 160.692 310.406 185.903 310.406H389.423C414.634 310.406 435.071 289.969 435.071 264.758V73.1986C435.071 47.9876 414.634 27.55 389.423 27.55Z" stroke="black" stroke-width="2.60865" stroke-miterlimit="10"/>
<path d="M386.551 37.1038H193.017C169.377 37.1038 150.213 56.268 150.213 79.9081V262.115C150.213 285.755 169.377 304.92 193.017 304.92H386.551C410.191 304.92 429.355 285.755 429.355 262.115V79.9081C429.355 56.268 410.191 37.1038 386.551 37.1038Z" fill="#FA74BB"/>
<path d="M396.374 51.1625H337.923C329.979 51.1625 323.533 58.0964 323.533 66.6292V201.92C323.533 210.47 329.979 217.42 337.923 217.42H396.374C404.334 217.42 410.803 210.47 410.803 201.92V66.6292C410.803 58.0964 404.334 51.1625 396.374 51.1625ZM406.662 202.509C406.652 205.353 405.517 208.078 403.506 210.088C401.494 212.099 398.769 213.232 395.925 213.241H338.411C335.563 213.232 332.834 212.098 330.818 210.086C328.803 208.073 327.664 205.346 327.651 202.498V66.0739C327.664 63.2258 328.803 60.4984 330.818 58.4861C332.834 56.4737 335.563 55.3396 338.411 55.3307H395.925C398.771 55.3396 401.498 56.4745 403.51 58.4875C405.522 60.5004 406.655 63.2278 406.662 66.0739V202.509Z" fill="#D7E8F0"/>
<path d="M395.605 233.297H337.154C329.216 233.297 322.765 240.231 322.765 248.764V269.341C322.765 277.896 329.216 284.847 337.154 284.847H395.605C403.565 284.847 410.034 277.896 410.034 269.341V248.764C410.034 240.231 403.565 233.297 395.605 233.297ZM405.894 269.936C405.886 272.781 404.753 275.508 402.74 277.52C400.728 279.532 398.002 280.666 395.156 280.673H337.642C334.795 280.666 332.066 279.533 330.05 277.521C328.034 275.51 326.896 272.783 326.882 269.936V248.208C326.896 245.36 328.034 242.633 330.05 240.62C332.065 238.608 334.794 237.474 337.642 237.465H395.156C398.002 237.474 400.729 238.609 402.741 240.622C404.753 242.635 405.886 245.362 405.894 248.208V269.936Z" fill="#D7E8F0"/>
<path d="M264.617 248.253L178.964 246.996C178.042 246.982 177.164 246.602 176.523 245.94C175.881 245.278 175.528 244.389 175.542 243.468C175.54 243.149 175.586 242.831 175.676 242.525C175.897 241.8 176.348 241.166 176.96 240.719C177.572 240.272 178.312 240.036 179.07 240.046L264.724 241.291C264.083 242.286 263.725 243.435 263.686 244.618C263.64 245.894 263.963 247.156 264.617 248.253Z" fill="#FA74BB"/>
<path d="M285.386 246.009C285.168 246.733 284.724 247.367 284.117 247.818C283.511 248.268 282.775 248.512 282.02 248.511L275.849 248.421C276.51 247.387 276.871 246.189 276.89 244.961C276.909 243.733 276.585 242.525 275.955 241.471L282.126 241.56C283.046 241.579 283.922 241.961 284.562 242.621C285.203 243.282 285.557 244.169 285.548 245.089C285.538 245.402 285.483 245.712 285.386 246.009V246.009Z" fill="#D7E8F0"/>
<path d="M285.184 259.804C284.966 260.526 284.521 261.159 283.914 261.607C283.308 262.055 282.572 262.294 281.818 262.289L196.686 261.044C197.481 260.096 197.991 258.941 198.156 257.715C198.322 256.489 198.137 255.241 197.623 254.115L281.896 255.316C282.817 255.334 283.693 255.715 284.334 256.375C284.975 257.036 285.329 257.924 285.318 258.845C285.321 259.169 285.276 259.493 285.184 259.804V259.804Z" fill="#D7E8F0"/>
<path d="M186.442 260.887L178.767 260.775C177.848 260.761 176.971 260.384 176.328 259.726C175.686 259.068 175.331 258.182 175.34 257.263C175.343 256.938 175.39 256.615 175.48 256.303C175.695 255.581 176.14 254.949 176.748 254.504C177.356 254.058 178.092 253.823 178.846 253.835L185.684 253.942C185.284 254.771 185.059 255.675 185.022 256.595C184.965 258.15 185.469 259.673 186.442 260.887V260.887Z" fill="#FA74BB"/>
<path d="M258.559 275.893L179.082 274.738C178.162 274.717 177.287 274.335 176.647 273.675C176.007 273.015 175.652 272.129 175.66 271.209C175.661 270.897 175.711 270.587 175.805 270.289C176.021 269.564 176.465 268.929 177.072 268.478C177.679 268.027 178.415 267.785 179.171 267.787L258.53 268.954C257.883 269.995 257.539 271.197 257.539 272.424C257.539 273.65 257.883 274.852 258.53 275.893H258.559Z" fill="#FA74BB"/>
<path d="M285.515 273.756C285.299 274.479 284.854 275.112 284.246 275.559C283.639 276.007 282.903 276.244 282.149 276.236L269.661 276.073L258.558 275.922C257.911 274.88 257.567 273.678 257.567 272.452C257.567 271.225 257.911 270.023 258.558 268.982L269.868 269.15L282.21 269.33C283.129 269.345 284.004 269.722 284.645 270.38C285.287 271.038 285.641 271.923 285.632 272.842C285.636 273.15 285.597 273.458 285.515 273.756V273.756Z" fill="#D7E8F0"/>
<path d="M275.815 248.421C274.952 249.769 273.63 250.759 272.093 251.205C270.556 251.652 268.909 251.526 267.458 250.85C266.008 250.175 264.851 248.996 264.204 247.532C263.557 246.068 263.463 244.419 263.94 242.891C264.416 241.363 265.431 240.061 266.796 239.224C268.16 238.388 269.782 238.076 271.36 238.345C272.937 238.614 274.364 239.447 275.374 240.688C276.384 241.929 276.91 243.495 276.853 245.095C276.812 246.277 276.453 247.426 275.815 248.421V248.421Z" fill="white"/>
<g opacity="0.72">
<path opacity="0.72" d="M273.33 244.382C273.181 245.171 272.809 245.902 272.258 246.486C271.99 246.783 271.697 247.057 271.383 247.305C271.209 247.428 270.306 248.152 270.132 248.062C268.943 247.462 267.445 245.953 267.26 244.477C267.229 244.247 267.229 244.013 267.26 243.782C267.325 243.385 267.531 243.024 267.84 242.766C268.149 242.507 268.54 242.368 268.943 242.374C269.206 242.383 269.464 242.455 269.695 242.583C269.926 242.71 270.124 242.89 270.272 243.109C270.441 242.906 270.653 242.743 270.893 242.634C271.132 242.524 271.394 242.47 271.658 242.475C271.895 242.483 272.129 242.539 272.343 242.641C272.558 242.743 272.75 242.888 272.907 243.067C273.063 243.245 273.182 243.454 273.254 243.681C273.327 243.907 273.353 244.146 273.33 244.382V244.382Z" fill="#FA74BB"/>
</g>
<path d="M196.674 261.044C196.046 261.797 195.257 262.4 194.365 262.809C193.473 263.218 192.502 263.423 191.521 263.408C190.54 263.393 189.574 263.159 188.696 262.722C187.817 262.286 187.047 261.659 186.442 260.887C185.473 259.671 184.974 258.148 185.034 256.595C185.07 255.675 185.296 254.771 185.696 253.942V253.942C186.259 252.797 187.141 251.84 188.236 251.186C189.331 250.532 190.592 250.209 191.867 250.256C193.094 250.295 194.286 250.679 195.305 251.365C196.324 252.05 197.13 253.01 197.628 254.132C198.143 255.258 198.328 256.506 198.162 257.732C197.996 258.958 197.486 260.112 196.691 261.061L196.674 261.044Z" fill="white"/>
<g opacity="0.72">
<path opacity="0.72" d="M194.683 256.348C194.531 257.136 194.157 257.864 193.606 258.446C193.342 258.748 193.049 259.022 192.731 259.265C192.562 259.389 191.654 260.118 191.485 260.023C190.296 259.428 188.798 257.919 188.607 256.438C188.577 256.207 188.577 255.973 188.607 255.742C188.665 255.414 188.819 255.11 189.05 254.869C189.281 254.628 189.578 254.461 189.904 254.39C190.23 254.318 190.57 254.345 190.88 254.467C191.191 254.589 191.458 254.801 191.648 255.075C191.871 254.765 192.191 254.541 192.558 254.438C192.925 254.335 193.316 254.359 193.667 254.507C194.018 254.655 194.309 254.917 194.491 255.252C194.674 255.586 194.737 255.973 194.672 256.348H194.683Z" fill="#FA74BB"/>
</g>
<path d="M269.661 276.073C268.869 277.269 267.708 278.175 266.355 278.652C265.002 279.13 263.53 279.153 262.162 278.718C260.795 278.284 259.606 277.415 258.777 276.245C257.947 275.074 257.522 273.664 257.566 272.23C257.607 271.081 257.945 269.962 258.547 268.982C259.009 268.244 259.612 267.605 260.323 267.101C261.033 266.597 261.836 266.239 262.685 266.048C263.534 265.856 264.413 265.835 265.27 265.984C266.128 266.134 266.947 266.453 267.681 266.921C268.415 267.389 269.049 267.998 269.547 268.713C270.044 269.427 270.395 270.233 270.579 271.084C270.763 271.935 270.776 272.814 270.619 273.671C270.461 274.527 270.136 275.343 269.661 276.073V276.073Z" fill="white"/>
<g opacity="0.72">
<path opacity="0.72" d="M267.22 271.955C267.07 272.745 266.696 273.475 266.143 274.059C265.879 274.36 265.586 274.635 265.268 274.878C265.1 275.001 264.191 275.725 264.023 275.635C262.833 275.035 261.335 273.532 261.145 272.051C261.114 271.82 261.114 271.586 261.145 271.355C261.202 271.026 261.357 270.722 261.587 270.482C261.818 270.241 262.116 270.074 262.441 270.003C262.767 269.931 263.107 269.958 263.417 270.08C263.728 270.202 263.995 270.413 264.185 270.687C264.408 270.379 264.728 270.155 265.094 270.052C265.46 269.949 265.85 269.973 266.201 270.12C266.552 270.267 266.842 270.529 267.025 270.862C267.208 271.195 267.273 271.58 267.209 271.955H267.22Z" fill="#FA74BB"/>
</g>
<path d="M174.885 67.583L175.031 87.8856C175.068 91.4269 176.474 94.8166 178.953 97.3458C181.432 99.875 184.792 101.348 188.332 101.456L208.427 101.804C210.155 101.83 211.871 101.51 213.473 100.86C215.074 100.211 216.529 99.2466 217.751 98.0243C218.973 96.802 219.937 95.3467 220.585 93.7448C221.234 92.1429 221.554 90.427 221.527 88.699L221.375 68.3964C221.341 64.8557 219.937 61.4659 217.458 58.9371C214.98 56.4084 211.619 54.9371 208.08 54.8314L187.985 54.478C186.256 54.4515 184.541 54.7724 182.939 55.4217C181.337 56.0709 179.883 57.0353 178.661 58.2576C177.439 59.4799 176.475 60.9352 175.827 62.5372C175.178 64.1391 174.858 65.8549 174.885 67.583V67.583Z" fill="white"/>
<path d="M177.976 72.6769L178.083 87.375C178.116 90.4497 179.337 93.3925 181.49 95.5881C183.642 97.7837 186.56 99.0621 189.634 99.156L207.087 99.459C208.587 99.4816 210.078 99.2029 211.469 98.6394C212.86 98.0758 214.124 97.2388 215.186 96.1779C216.248 95.1171 217.086 93.8539 217.651 92.4633C218.216 91.0726 218.496 89.5828 218.475 88.0819V87.0889C216.023 82.0736 211.249 74.5674 206.133 79.0554C198.789 85.5069 195.429 80.5982 191.149 74.2645C187.575 68.963 182.139 65.0921 177.976 72.6769Z" fill="#FA74BB"/>
<path d="M210.812 70.6472C213.029 69.1744 213.6 66.1353 212.087 63.8591C210.575 61.583 207.552 60.9318 205.335 62.4046C203.119 63.8774 202.547 66.9166 204.06 69.1927C205.572 71.4688 208.595 72.12 210.812 70.6472Z" fill="#FA74BB"/>
<path d="M291.618 75.796C288.478 75.7949 285.414 76.7661 282.847 78.5761C280.281 80.3862 278.338 82.9464 277.285 85.9051C276.232 88.8639 276.12 92.0761 276.966 95.1006C277.812 98.1251 279.573 100.814 282.008 102.797L242.177 183.979C241.932 183.941 241.685 183.916 241.437 183.906C240.802 183.915 240.171 184.013 239.563 184.198L213.65 152.002C214.807 150.406 215.463 148.501 215.532 146.53C215.602 144.56 215.083 142.613 214.042 140.939C213.001 139.264 211.485 137.938 209.687 137.129C207.889 136.32 205.89 136.065 203.947 136.396C202.003 136.727 200.202 137.63 198.774 138.989C197.345 140.349 196.354 142.102 195.926 144.027C195.499 145.952 195.655 147.961 196.373 149.797C197.092 151.633 198.341 153.213 199.962 154.336L181.802 206.015C180.219 206.11 178.717 206.75 177.552 207.826C176.388 208.903 175.631 210.35 175.412 211.92C175.193 213.491 175.524 215.09 176.35 216.444C177.175 217.798 178.444 218.825 179.941 219.35C181.438 219.874 183.071 219.865 184.561 219.322C186.052 218.78 187.308 217.738 188.118 216.374C188.927 215.01 189.239 213.408 189.002 211.839C188.764 210.271 187.99 208.834 186.812 207.771L204.972 156.086C205.196 156.086 205.415 156.12 205.639 156.12C206.99 156.12 208.326 155.845 209.566 155.312L235.473 187.497C234.928 188.487 234.638 189.598 234.632 190.728C234.606 191.644 234.763 192.557 235.096 193.411C235.429 194.265 235.929 195.044 236.568 195.702C237.207 196.359 237.971 196.882 238.816 197.239C239.66 197.596 240.568 197.78 241.484 197.78C242.401 197.78 243.309 197.596 244.153 197.239C244.998 196.882 245.762 196.359 246.401 195.702C247.04 195.044 247.54 194.265 247.873 193.411C248.205 192.557 248.363 191.644 248.337 190.728C248.333 189.204 247.815 187.726 246.867 186.532L286.698 105.349C288.792 106.087 291.022 106.357 293.231 106.141C295.44 105.924 297.575 105.227 299.486 104.098C301.397 102.969 303.038 101.436 304.293 99.605C305.548 97.7744 306.387 95.6912 306.752 93.5017C307.116 91.3122 306.997 89.0694 306.403 86.9309C305.808 84.7923 304.753 82.8098 303.311 81.1225C301.869 79.4352 300.075 78.0841 298.055 77.1639C296.035 76.2437 293.838 75.7768 291.618 75.796V75.796Z" fill="#D7E8F0"/>
<path d="M339.752 105.052H393.047" stroke="white" stroke-width="2.60865" stroke-miterlimit="10"/>
<path d="M339.752 113.282H393.047" stroke="white" stroke-width="2.60865" stroke-miterlimit="10"/>
<path d="M339.752 121.506H393.047" stroke="white" stroke-width="2.60865" stroke-miterlimit="10"/>
<path d="M339.752 129.731H393.047" stroke="white" stroke-width="2.60865" stroke-miterlimit="10"/>
<path d="M339.752 137.96H393.047" stroke="white" stroke-width="2.60865" stroke-miterlimit="10"/>
<path d="M339.752 186.004H393.047" stroke="white" stroke-width="2.60865" stroke-miterlimit="10"/>
<path d="M339.752 193.264H393.047" stroke="white" stroke-width="2.60865" stroke-miterlimit="10"/>
<path d="M381.849 248.853C382.385 249.298 382.814 249.856 383.105 250.488C383.397 251.12 383.543 251.81 383.532 252.505L383.409 268.96C383.405 269.581 383.278 270.195 383.035 270.766C382.793 271.338 382.44 271.857 381.997 272.292C381.554 272.727 381.03 273.071 380.454 273.303C379.878 273.535 379.261 273.651 378.641 273.644L353.957 273.431C352.705 273.419 351.509 272.911 350.631 272.017C349.754 271.124 349.267 269.92 349.278 268.668L349.424 252.202C349.471 250.962 349.99 249.787 350.876 248.917C351.761 248.047 352.946 247.549 354.187 247.524L378.871 247.737C379.964 247.746 381.019 248.142 381.849 248.853V248.853Z" fill="white"/>
<path d="M378.36 251.86L366.848 261.751C366.701 261.876 366.514 261.945 366.321 261.945C366.128 261.945 365.941 261.876 365.794 261.751L354.074 251.653C353.945 251.544 353.853 251.397 353.811 251.233C353.77 251.069 353.781 250.896 353.843 250.739C353.905 250.581 354.015 250.447 354.157 250.356C354.299 250.264 354.466 250.219 354.635 250.228L377.866 250.435C378.03 250.441 378.187 250.496 378.319 250.593C378.45 250.689 378.549 250.824 378.603 250.978C378.656 251.133 378.661 251.299 378.618 251.457C378.575 251.614 378.485 251.755 378.36 251.86V251.86Z" fill="#FA74BB"/>
<path d="M367.173 151.183C364.714 151.181 362.31 151.908 360.264 153.273C358.218 154.638 356.623 156.578 355.68 158.85C354.737 161.121 354.49 163.621 354.968 166.033C355.446 168.446 356.63 170.662 358.368 172.402C360.106 174.141 362.321 175.326 364.733 175.807C367.145 176.288 369.645 176.042 371.917 175.101C374.189 174.161 376.132 172.567 377.498 170.523C378.865 168.478 379.594 166.074 379.594 163.615C379.595 161.983 379.274 160.367 378.65 158.859C378.026 157.351 377.112 155.981 375.958 154.827C374.805 153.672 373.436 152.756 371.928 152.131C370.421 151.506 368.805 151.184 367.173 151.183V151.183ZM367.173 173.062C366.691 173.062 366.229 172.871 365.888 172.53C365.547 172.189 365.356 171.727 365.356 171.245C365.356 170.762 365.547 170.3 365.888 169.959C366.229 169.618 366.691 169.427 367.173 169.427C367.656 169.427 368.118 169.618 368.459 169.959C368.8 170.3 368.991 170.762 368.991 171.245C368.991 171.727 368.8 172.189 368.459 172.53C368.118 172.871 367.656 173.062 367.173 173.062V173.062ZM369.457 159.082C369.075 161.78 368.75 164.614 367.948 167.228C367.873 167.37 367.761 167.489 367.623 167.572C367.486 167.655 367.328 167.699 367.168 167.699C367.007 167.699 366.85 167.655 366.712 167.572C366.575 167.489 366.463 167.37 366.388 167.228C365.819 165.259 365.384 163.253 365.087 161.225C364.834 159.755 363.965 157.36 364.8 155.935C365.524 154.65 367.572 154.499 368.727 155.166C370.203 155.957 369.631 157.702 369.457 159.06V159.082Z" fill="white"/>
<path d="M291.837 102.46C298.003 102.46 303.001 97.4621 303.001 91.2964C303.001 85.1308 298.003 80.1325 291.837 80.1325C285.672 80.1325 280.673 85.1308 280.673 91.2964C280.673 97.4621 285.672 102.46 291.837 102.46Z" fill="white"/>
<path d="M367.084 75.3023C369.144 75.3023 370.815 73.6321 370.815 71.5717C370.815 69.5113 369.144 67.841 367.084 67.841C365.024 67.841 363.353 69.5113 363.353 71.5717C363.353 73.6321 365.024 75.3023 367.084 75.3023Z" fill="white"/>
<path d="M356.666 88.4409C356.666 85.678 357.764 83.0282 359.718 81.0745C361.671 79.1207 364.321 78.0232 367.084 78.0232C369.847 78.0232 372.497 79.1207 374.45 81.0745C376.404 83.0282 377.502 85.678 377.502 88.4409H356.666Z" fill="white"/>
<path d="M295.332 445.041C295.33 445.888 295.069 446.715 294.585 447.41C294.101 448.106 293.416 448.637 292.622 448.934L253.549 463.52C253.549 463.52 251.686 460.064 248.438 454.291L226.121 416.957C220.091 447.98 213.364 479.043 209.196 498.403L205.179 517.679L221.28 522.975C222.248 523.208 223.109 523.76 223.727 524.541C224.344 525.322 224.682 526.288 224.685 527.283C224.684 527.959 224.529 528.625 224.232 529.231C223.935 529.838 223.504 530.369 222.972 530.785C222.44 531.2 221.82 531.489 221.159 531.63C220.499 531.771 219.815 531.76 219.159 531.597L181.842 522.139V513.017L180.955 512.843L181.724 406.438L145.259 397.816C140.687 399.241 135.857 400.548 130.92 401.608C130.867 401.615 130.814 401.627 130.763 401.642C118.78 404.783 106.265 405.322 94.0565 403.224C93.9499 403.224 93.8264 403.173 93.7255 403.151C92.8391 402.982 91.9527 402.786 91.0831 402.59C90.8195 402.539 90.5614 402.489 90.2978 402.416C89.5348 402.242 88.7718 402.018 88.0089 401.81C87.5881 401.687 87.173 401.586 86.7747 401.462C86.3764 401.339 86.079 401.238 85.7312 401.114C79.1605 399.051 73.0922 395.641 67.9138 391.1C63.9432 387.767 60.5766 383.774 57.9617 379.297C56.8397 377.524 55.7906 375.662 54.8145 373.749C48.8903 362.052 47.6561 358.074 49.3784 357.968C45.5856 356.632 41.9113 354.98 38.394 353.031C38.394 353.031 30.641 307.786 47.5496 262.25C47.2259 259.433 47.2844 256.586 47.7235 253.784C51.2858 228.237 70.8928 201.976 94.2865 191.34C106.819 185.64 127.256 176.894 120.653 159.48C118.567 153.971 115.604 149.225 115.043 143.509C114.993 142.948 114.926 142.448 114.886 141.893C113.95 128.429 121.787 115.644 134.477 111.038C138.629 109.475 143.067 108.816 147.494 109.106C151.921 109.397 156.235 110.629 160.148 112.721C161.499 113.434 162.711 114.384 163.727 115.526C167.587 115.627 172.434 116.306 174.711 117.366C178.571 119.173 181.662 122.337 183.974 125.899C188.237 132.539 189.949 140.499 188.793 148.305C188.128 152.625 186.59 156.763 184.271 160.468C183.127 162.324 181.801 164.06 180.31 165.651C179.003 167.02 177.146 169.017 175.357 169.752C175.376 169.768 175.401 169.777 175.427 169.777C175.452 169.777 175.477 169.768 175.497 169.752L174.975 178.094C185.69 175.654 214.318 165.601 235.305 124.092C236.82 120.878 238.379 117.68 240.017 114.516C244.864 105.097 250.059 95.7283 256.943 87.6275C258.626 85.664 261.117 83.8912 263.793 84.7439C266.138 85.4901 267.72 88.1099 266.087 90.3091L254.822 105.703L258.418 105.237C258.81 105.332 259.177 105.511 259.492 105.762C259.808 106.013 260.065 106.33 260.246 106.69C260.426 107.051 260.526 107.447 260.538 107.85C260.55 108.253 260.473 108.653 260.314 109.024L258.037 114.432L259.114 113.164C259.855 112.289 260.905 111.734 262.046 111.616C263.186 111.498 264.329 111.825 265.234 112.529C266.138 113.233 266.736 114.26 266.901 115.395C267.067 116.529 266.787 117.684 266.121 118.617L260.185 126.286C259.39 127.299 258.381 128.123 257.229 128.698L245.482 134.364C248.956 138.635 252.187 143.099 255.159 147.733C248.708 160.096 241.147 171.847 232.567 182.84C218.105 201.471 197.28 222.296 171.856 231.002C171.295 246.402 168.574 261.661 164.35 276.589C177.539 276.589 190.122 276.589 202.846 276.589L212.439 250.413C212.88 249.205 213.681 248.162 214.735 247.426C215.789 246.689 217.043 246.294 218.329 246.295H256.674C257.341 246.297 258.001 246.427 258.62 246.677C259.56 247.065 260.364 247.723 260.93 248.567C261.496 249.412 261.799 250.406 261.801 251.423C261.794 252.046 261.677 252.664 261.453 253.246L258.912 259.854H258.828H248.017L243.619 272.455L244.87 269.274H250.278C251.125 269.274 251.959 269.483 252.705 269.883C253.452 270.283 254.088 270.861 254.557 271.566C255.027 272.271 255.314 273.081 255.395 273.924C255.475 274.767 255.346 275.617 255.019 276.398L250.413 287.416C249.024 290.734 246.822 293.649 244.01 295.891C241.198 298.133 237.867 299.631 234.323 300.247L233.835 300.331L232.932 303.001L233.398 302.081C233.246 302.446 233.072 302.844 232.915 303.282H245.044C245.044 303.282 242.351 311.136 237.398 311.607C236.997 311.638 236.595 311.625 236.197 311.567V311.567H211.064C212.472 313.133 214.054 315.029 215.743 317.256C223.036 317.149 233.644 317.929 236.27 323.023C236.722 323.53 237.134 324.07 237.504 324.639C238.508 326.322 238.839 330.249 238.598 335.92C238.669 341.77 238.179 347.612 237.134 353.368C238.406 355.754 239.628 358.153 240.803 360.565C243.357 365.338 245.66 370.24 247.703 375.252C247.774 375.385 247.832 375.524 247.877 375.667C254.001 389.711 259.374 404.07 263.972 418.685L264.23 419.588C267.708 429.843 270.541 439.161 271.619 444.833L289.851 441.097C290.476 440.889 291.142 440.833 291.794 440.932C292.445 441.032 293.063 441.285 293.598 441.669C294.133 442.054 294.569 442.561 294.871 443.147C295.172 443.733 295.33 444.382 295.332 445.041V445.041Z" fill="white"/>
<path d="M232.416 303.955H244.545C244.047 305.323 243.414 306.639 242.654 307.882C241.156 310.227 238.845 312.678 235.788 312.263H198.992C197.561 312.273 196.168 311.807 195.031 310.939C194.779 309.773 194.851 308.561 195.239 307.433C210.099 305.155 225.325 302.704 232.135 301.296L233.42 301.071L232.416 303.955Z" fill="#FA74BB"/>
<path d="M261.302 252.163C261.295 252.787 261.177 253.404 260.954 253.986L258.418 260.589H247.602L243.159 273.268L241.544 277.318H206.29L214.458 255.069C214.902 253.862 215.705 252.82 216.759 252.083C217.814 251.347 219.068 250.952 220.355 250.951H258.693C259.361 250.953 260.022 251.082 260.64 251.333C260.855 251.421 261.064 251.52 261.268 251.63C261.285 251.799 261.302 251.989 261.302 252.163Z" fill="#FA74BB"/>
<path d="M261.308 252.158C261.3 252.781 261.183 253.398 260.96 253.981L258.418 260.584H247.608L251.367 250.385C251.782 249.254 252.582 248.305 253.627 247.705C254.672 247.105 255.894 246.893 257.08 247.104C258.266 247.316 259.34 247.938 260.113 248.862C260.886 249.786 261.309 250.953 261.308 252.158V252.158Z" fill="#FA74BB"/>
<path d="M244.539 303.955C244.539 303.955 241.061 314.176 234.744 311.977C230.817 310.625 231.406 306.715 232.432 303.932L244.539 303.955Z" fill="#FA74BB"/>
<path d="M235.653 260.584H218.021" stroke="white" stroke-width="2.60865" stroke-linecap="round" stroke-linejoin="round"/>
<path d="M233.482 267.226H215.849" stroke="white" stroke-width="2.60865" stroke-linecap="round" stroke-linejoin="round"/>
<path d="M247.294 375.931C244.24 368.548 240.679 361.386 236.635 354.495C238.273 345.817 239.389 330.613 235.838 323.713C233.213 318.614 222.615 317.839 215.3 317.946C209.651 310.479 205.084 306.631 205.084 306.631C205.084 306.631 171.076 312.14 163.312 312.185C155.548 312.229 155.553 316.532 155.553 316.532C155.553 316.532 150.145 332.852 144.03 340.958C137.915 349.065 121.467 358.91 97.7647 362.703C74.0624 366.495 55.4204 361.822 51.1456 359.443C46.8708 357.065 46.7305 359.359 54.3826 374.433C62.0346 389.507 73.8156 400.346 93.6021 403.919C105.806 406.021 118.319 405.481 130.297 402.337C130.297 402.337 161.606 394.444 170.79 388.424C179.974 382.405 181.41 390.59 181.41 390.59L180.512 513.55L204.747 518.386L225.684 417.669L248.012 455.032L271.209 445.495C268.477 431.15 254.446 393.322 247.294 375.931Z" fill="#2E2E2E"/>
<path d="M183.957 211.519C183.46 214.934 182.007 218.139 179.766 220.764C178.044 222.964 175.854 224.752 173.354 225.998C172.767 226.282 172.157 226.514 171.53 226.694C171.53 224.747 171.497 222.767 171.39 220.837C170.992 213.606 169.533 206.077 164.927 200.518C162.712 197.861 159.915 195.75 156.754 194.347C156.843 193.011 156.95 191.687 157.034 190.352C157.275 188.069 157.264 185.766 157.001 183.486C156.703 182.102 156.534 180.693 156.496 179.278C156.546 177.96 156.355 172.899 157.399 171.806C159.14 172.531 161.005 172.912 162.891 172.928C167.115 172.894 170.47 170.302 172.731 166.987C173.562 166.715 174.427 166.556 175.3 166.515C177.858 166.897 170.223 173.78 172.714 173C171.093 173.5 169.909 175.935 169.146 177.326C168.024 179.48 167.373 182.016 168.473 184.293C169.55 186.47 171.805 188.344 173.404 190.133C175.56 192.397 177.576 194.789 179.441 197.297C182.391 201.404 184.546 206.447 183.957 211.519Z" fill="#FA74BB"/>
<path d="M145.13 191.485C149.147 191.735 153.087 192.7 156.765 194.335C159.924 195.74 162.718 197.852 164.933 200.506C169.539 206.071 170.998 213.594 171.396 220.826C171.503 222.772 171.553 224.753 171.536 226.683C171.452 243.804 168.602 260.746 163.923 277.313C178.453 277.313 192.237 277.313 206.279 277.313H241.543L243.159 273.268L244.449 270.014H249.891C250.739 270.014 251.573 270.223 252.32 270.624C253.068 271.024 253.704 271.602 254.174 272.308C254.644 273.014 254.932 273.824 255.012 274.668C255.093 275.512 254.964 276.363 254.637 277.145L250.031 288.163C248.639 291.478 246.436 294.391 243.623 296.632C240.81 298.873 237.479 300.371 233.936 300.987L233.448 301.077L232.163 301.301C225.353 302.709 210.127 305.161 195.267 307.438C181.673 309.542 168.378 311.489 162.089 312.392C159.705 312.74 157.27 312.998 154.796 313.155C140.115 314.058 124.956 310.793 121.029 294.081C118.471 283.377 119.032 271.837 119.15 260.696" stroke="black" stroke-width="2.60865" stroke-miterlimit="10"/>
<path d="M215.418 318.428C224.921 317.991 233.437 319.399 237.089 325.346C238.929 328.353 238.48 338.955 236.584 353.743" stroke="black" stroke-width="2.60865" stroke-miterlimit="10"/>
<path d="M56.2114 377.575C56.2319 377.6 56.2489 377.629 56.2619 377.659C60.3292 385.95 67.4819 393.109 76.6318 398.119C108.873 415.756 157.365 395.089 174.807 386.489C175.503 386.146 176.275 385.987 177.05 386.026C177.824 386.065 178.576 386.301 179.235 386.711C179.893 387.122 180.435 387.693 180.811 388.372C181.187 389.051 181.383 389.814 181.382 390.59V522.857L218.694 532.31C219.272 532.458 219.873 532.488 220.463 532.398C221.053 532.308 221.618 532.099 222.125 531.784C222.631 531.47 223.069 531.056 223.412 530.568C223.755 530.08 223.995 529.527 224.119 528.944C224.365 527.81 224.156 526.625 223.539 525.644C222.921 524.662 221.943 523.962 220.814 523.693L204.719 518.391C205.465 513.163 216.383 465.349 225.661 417.675" stroke="black" stroke-width="2.60865" stroke-miterlimit="10"/>
<path d="M204.366 306.008C213.903 314.086 220.753 326.507 227.165 337.059C242.789 362.77 254.474 390.753 263.551 419.386C266.295 428.037 268.819 436.777 271.203 445.517L289.425 441.776C290.459 441.44 291.583 441.521 292.558 442.004C293.532 442.486 294.279 443.331 294.639 444.357C294.999 445.383 294.943 446.509 294.484 447.494C294.024 448.48 293.197 449.246 292.179 449.63L253.106 464.216C253.106 464.216 241.672 442.858 225.695 417.653C202.279 380.671 159.009 323.674 147.587 335.831" stroke="black" stroke-width="2.60865" stroke-miterlimit="10"/>
<path d="M170.28 179.458C170.28 179.458 208.596 176.804 234.862 124.805C234.862 124.805 243.165 130.533 254.738 148.451C254.738 148.451 222.267 214.352 171.396 231.743" stroke="black" stroke-width="2.60865" stroke-miterlimit="10"/>
<path d="M166.812 118.656L169.056 122.067L170.409 124.143C171.78 127.338 172.986 130.602 174.021 133.921L174.089 134.157L176.658 143.974C176.662 143.985 176.662 143.997 176.658 144.008C177.522 145.429 178.712 146.624 180.131 147.492C180.466 147.673 180.779 147.893 181.062 148.148C182.605 149.697 178.537 150.145 177.696 150.656C177.325 150.911 177.02 151.251 176.808 151.649C176.596 152.046 176.483 152.489 176.479 152.939C171.648 173.04 174.756 167.761 172.681 172.232C174.481 170.706 178.958 165.853 178.958 165.853C179.519 165.489 180.046 164.395 180.411 163.851C181.569 162.073 182.566 160.196 183.39 158.241C185.95 152.401 186.541 145.887 185.073 139.683C182.756 130.039 177.354 120.39 166.812 118.656Z" fill="#FA74BB"/>
<path d="M166.352 124.721C165.942 126.807 164.952 128.736 163.497 130.286C161.917 132.013 160.077 133.484 158.044 134.645C154.218 136.923 149.96 138.645 146.745 141.719C143.527 144.814 141.6 149.014 141.354 153.472C141.13 158.039 142.762 162.768 143.755 167.043C146.903 180.86 145.893 194.139 144.154 208.046C142.504 221.168 138.992 234.009 132.182 245.431C124.148 258.895 110.959 269.672 96.1152 275.203C83.7732 279.809 59.7905 283.893 50.7191 271.08C49.1539 267.035 49.1371 262.407 49.743 258.048C53.3053 232.478 72.9123 206.234 96.306 195.598C108.839 189.898 129.276 181.141 122.673 163.722C120.569 158.229 117.624 153.489 117.063 147.75C117.012 147.228 116.962 146.706 116.911 146.151C115.969 132.687 123.806 119.907 136.496 115.296C140.647 113.728 145.086 113.067 149.514 113.358C153.942 113.648 158.256 114.883 162.167 116.979C163.556 117.718 164.799 118.703 165.836 119.885C165.907 119.965 165.971 120.052 166.027 120.143C166.106 120.342 166.17 120.546 166.218 120.755C166.528 122.054 166.573 123.403 166.352 124.721V124.721Z" fill="#FA74BB"/>
<path d="M171.564 226.105C178.341 224.54 184.288 219.687 185.988 212.596C187.57 206.027 185.068 199.283 181.191 193.999C177.595 189.118 170.106 185.023 170.695 178.1C170.885 175.856 171.996 173.892 173.444 172.153C173.965 171.547 174.504 170.986 175.093 170.414" stroke="black" stroke-width="2.60865" stroke-miterlimit="10"/>
<path d="M157.59 171.648L157.275 194.554" stroke="black" stroke-width="2.60865" stroke-miterlimit="10"/>
<path d="M120.227 160.165C118.134 154.667 115.178 149.927 114.617 144.193C114.561 143.666 114.51 143.138 114.471 142.577C113.523 129.113 121.366 116.339 134.05 111.722C138.203 110.156 142.642 109.496 147.071 109.786C151.499 110.076 155.815 111.31 159.727 113.405C161.112 114.147 162.351 115.134 163.385 116.317L163.648 116.637C164.565 117.756 165.23 119.059 165.601 120.457C165.971 121.856 166.038 123.317 165.797 124.743C165.389 126.824 164.405 128.748 162.958 130.297C161.373 132.028 159.53 133.504 157.494 134.673C153.668 136.951 149.416 138.662 146.19 141.736C142.97 144.839 141.049 149.051 140.816 153.517C140.586 158.083 142.224 162.807 143.2 167.093C146.347 180.911 145.343 194.184 143.604 208.085C141.955 221.207 138.448 234.054 131.627 245.476C123.593 258.94 110.41 269.722 95.5599 275.248C82.9766 279.938 58.3038 284.09 49.6364 270.362C46.7248 265.756 46.5341 259.927 47.2858 254.531C50.8482 228.966 70.4663 202.711 93.8488 192.08C106.404 186.313 126.841 177.578 120.227 160.165Z" stroke="black" stroke-width="2.60865" stroke-miterlimit="10"/>
<path d="M168.4 144.619C169.606 144.619 170.583 143.642 170.583 142.437C170.583 141.232 169.606 140.255 168.4 140.255C167.195 140.255 166.218 141.232 166.218 142.437C166.218 143.642 167.195 144.619 168.4 144.619Z" fill="black"/>
<path d="M167.89 135.402C167.89 135.402 160.501 138.735 162.841 145.214" stroke="black" stroke-width="2.60865" stroke-miterlimit="10"/>
<path d="M174.717 170.521C176.568 169.848 178.543 167.716 179.889 166.319C181.378 164.73 182.709 163 183.861 161.152C187.108 155.958 188.803 149.945 188.748 143.82C188.694 137.695 186.891 131.713 183.553 126.578C181.242 123.01 178.162 119.846 174.302 118.051C171.085 116.535 167.485 116.026 163.974 116.592C165.936 118.194 167.695 120.029 169.214 122.056C171.501 125.057 173.101 128.523 173.904 132.21C174.027 132.855 174.134 133.495 174.246 134.146C174.807 137.613 175.121 141.124 176.821 143.963C177.688 145.396 178.884 146.602 180.31 147.481C180.646 147.662 180.958 147.882 181.242 148.137C182.784 149.685 178.717 150.129 177.876 150.639C175.716 151.901 176.518 155.525 176.232 157.623C175.887 160.073 175.154 162.451 174.061 164.67C173.674 165.458 173.233 166.219 172.742 166.947C170.498 170.274 167.132 172.877 162.902 172.899C161.02 172.883 159.159 172.502 157.421 171.777C154.441 170.567 151.776 168.692 149.629 166.297" stroke="black" stroke-width="2.60865" stroke-miterlimit="10"/>
<path d="M170.655 158.914C170.655 158.914 165.567 161.814 163.362 155.138" stroke="black" stroke-width="2.60865" stroke-miterlimit="10"/>
<path d="M244.124 135.542L256.803 129.416C257.962 128.857 258.974 128.035 259.759 127.015L265.678 119.335C266.359 118.403 266.651 117.242 266.491 116.098C266.332 114.954 265.733 113.917 264.822 113.208C263.91 112.498 262.759 112.171 261.61 112.296C260.462 112.42 259.408 112.988 258.671 113.877L257.588 115.139L259.871 109.736C260.026 109.365 260.1 108.965 260.086 108.563C260.073 108.16 259.973 107.766 259.794 107.405C259.615 107.045 259.36 106.728 259.047 106.475C258.734 106.221 258.37 106.039 257.981 105.939L254.373 106.415L265.65 91.0159C267.248 88.8336 265.694 86.1969 263.355 85.4508C260.662 84.5925 258.171 86.3652 256.5 88.3287C249.622 96.4296 244.41 105.798 239.569 115.223C237.942 118.391 236.373 121.585 234.862 124.805" stroke="black" stroke-width="2.60865" stroke-linejoin="round"/>
<path d="M254.379 106.415C254.379 106.415 247.024 115.565 257.593 115.139" stroke="black" stroke-width="2.60865" stroke-miterlimit="10"/>
<path d="M233.903 300.981C233.903 300.981 228.45 309.828 234.8 311.999C241.151 314.17 244.623 303.96 244.623 303.96H232.365" stroke="black" stroke-width="2.60865" stroke-miterlimit="10"/>
<path d="M235.855 312.258H210.565" stroke="black" stroke-width="2.60865" stroke-miterlimit="10"/>
<path d="M261.386 252.158C261.379 252.781 261.261 253.398 261.038 253.981L258.502 260.584H247.692L251.445 250.385C251.86 249.254 252.66 248.305 253.705 247.705C254.75 247.105 255.973 246.893 257.159 247.104C258.345 247.316 259.418 247.938 260.191 248.862C260.964 249.786 261.387 250.953 261.386 252.158V252.158Z" stroke="black" stroke-width="2.60865" stroke-miterlimit="10"/>
<path d="M208.601 260.584L202.43 277.307L212.007 251.148C212.45 249.938 213.254 248.894 214.311 248.158C215.368 247.421 216.626 247.027 217.914 247.03H256.253" stroke="black" stroke-width="2.60865" stroke-miterlimit="10"/>
<path d="M241.554 277.307L247.692 260.584" stroke="black" stroke-width="2.60865" stroke-miterlimit="10"/>
<path d="M47.14 262.951C30.2258 308.488 37.9789 353.743 37.9789 353.743C63.5268 367.959 99.7506 366.725 125.697 354.232C134.875 349.8 144.771 343.124 148.776 333.34C151.716 326.176 154.773 319.068 157.292 311.803" stroke="black" stroke-width="2.60865" stroke-miterlimit="10"/>
<path d="M32.5542 405.03H181.404" stroke="black" stroke-width="2.60865" stroke-miterlimit="10"/>
<path d="M163.935 277.324L162.33 282.749" stroke="black" stroke-width="2.60865" stroke-miterlimit="10"/>
<path d="M56.2619 377.659C56.2619 377.659 49.7094 365.968 47.5776 358.187" stroke="black" stroke-width="2.60865" stroke-miterlimit="10"/>
<path d="M88.6035 47.2691V163.609H44.8904C46.3303 159.005 47.5364 154.349 48.5088 149.64C51.4933 135.144 52.3797 120.177 51.9141 105.058C51.0446 76.0485 62.8816 60.0768 78.6065 51.5776C81.8049 49.8487 85.1503 48.4069 88.6035 47.2691Z" stroke="#CCDDE2" stroke-width="2.60865" stroke-miterlimit="10"/>
<path d="M78.6064 51.5776V149.64H48.4919C51.4765 135.144 52.3628 120.177 51.8972 105.058C51.0445 76.0485 62.8816 60.088 78.6064 51.5776Z" stroke="#CCDDE2" stroke-width="2.60865" stroke-miterlimit="10"/>
</g>
<defs>
<clipPath id="clip0_127_2331">
<rect width="470" height="540" fill="white"/>
</clipPath>
</defs>
</svg>
