<svg width="590" height="511" viewBox="0 0 590 511" fill="none" xmlns="http://www.w3.org/2000/svg">
<path d="M255.195 21.5764C255.164 21.5208 255.136 21.4633 255.112 21.4041L255.15 21.3658C255.17 21.4349 255.185 21.5052 255.195 21.5764V21.5764Z" fill="#0CBDC3"/>
<path d="M255.348 22.342C255.289 22.133 255.246 21.9197 255.221 21.704C255.325 21.8996 255.369 22.1214 255.348 22.342Z" fill="#0CBDC3"/>
<path d="M284.007 242.025C283.848 242.388 283.714 242.746 283.554 243.122C271.777 271.8 263.559 306.112 261.652 347.173C228.954 267.079 174.711 228.308 126.396 209.691C127.263 182.927 130.983 136.385 146.174 107.789C146.174 107.789 171.898 113.806 204.276 139.173C229.822 159.187 259.546 191.284 284.007 242.025Z" fill="#0CBDC3"/>
<path d="M288.831 241.591L287.727 241.342C287.886 240.959 288.027 240.595 288.18 240.225C288.397 240.672 288.62 241.176 288.831 241.591Z" fill="#0CBDC3"/>
<path d="M288.831 241.591L287.727 241.342C287.886 240.959 288.027 240.595 288.18 240.225C288.397 240.672 288.62 241.176 288.831 241.591Z" fill="#0CBDC3"/>
<path d="M267.687 425.437C267.375 425.437 267.049 425.437 266.743 425.437C144.745 425.437 43.6853 332.984 25.5789 212.198C24.3603 201.888 24.1753 195.731 24.1753 195.731C24.1753 195.731 68.1973 191.265 119.237 211.356C164.503 229.175 215.301 266.275 245.919 342.912V342.969C246.104 343.428 246.289 343.881 246.454 344.36C255.603 367.551 262.889 394.341 267.649 425.265C267.668 425.322 267.687 425.379 267.687 425.437Z" fill="#0CBDC3"/>
<path d="M551.68 199.432C540.024 336.238 429.044 443.658 293.724 444.207C293.8 437.993 295.746 367.768 338.135 304.102C357.082 275.372 382.536 251.514 412.43 234.464C413.279 233.973 414.102 233.507 414.982 233.041C416.022 232.448 417.088 231.88 418.172 231.312C418.446 231.153 418.74 231.006 419.04 230.847C420.08 230.298 421.12 229.749 422.185 229.22C422.734 228.939 423.283 228.652 423.857 228.39C424.992 227.804 426.154 227.229 427.315 226.681C428.476 226.132 429.497 225.647 430.6 225.143L430.99 224.958C431.819 224.569 432.642 224.205 433.484 223.842C434.53 223.35 435.57 222.904 436.629 222.457C439.717 221.117 442.901 219.841 446.148 218.629L447.271 218.202C448.643 217.672 450.021 217.168 451.418 216.677C479.49 206.724 512.634 200.401 551.68 199.432Z" fill="#0CBDC3"/>
<path d="M367.509 135.963C339.864 156.903 308.723 189.906 288.18 240.225C263.738 188.484 234.097 155.741 208.602 135.332C223.659 107.26 257.785 50.2034 288.831 23.5159C288.831 23.5159 335.832 69.9431 367.509 135.963Z" fill="#0CBDC3"/>
<path d="M448.63 211.337C447.265 211.815 445.912 212.313 444.56 212.83L443.463 213.251C440.273 214.444 437.159 215.701 434.129 217.015C433.089 217.455 432.068 217.889 431.047 218.368C430.218 218.731 429.407 219.088 428.597 219.465L428.208 219.644C427.13 220.141 426.052 220.639 425.018 221.162C423.984 221.685 422.74 222.253 421.617 222.834C421.062 223.089 420.52 223.369 419.984 223.65C418.938 224.167 417.917 224.703 416.896 225.245C416.609 225.405 416.316 225.539 416.048 225.698C415.008 226.26 413.968 226.815 412.941 227.395C412.092 227.855 411.282 228.308 410.452 228.786C381.116 245.509 356.135 268.912 337.535 297.097C295.963 359.544 294.049 428.435 293.973 434.528L293.877 434.35C288.901 402.016 281.289 374.008 271.719 349.764L272.472 347.295L271.164 348.309C271.164 348.309 271.164 348.309 271.164 348.271C273.034 307.196 281.072 272.853 292.607 244.187L293.686 244.423L293.048 243.09C313.202 193.728 343.75 161.356 370.884 140.819C402.841 116.638 430.084 108.81 430.084 108.81C444.617 126.776 447.935 181.734 448.63 211.337Z" fill="#0CBDC3"/>
<path d="M264.593 354.325V354.261C264.593 354.261 264.593 354.3 264.593 354.325Z" stroke="#CCDDE2" stroke-width="2.53286" stroke-miterlimit="10"/>
<path d="M288.173 240.851C288.007 241.24 287.861 241.623 287.695 242.031C275.26 272.948 266.59 309.984 264.567 354.281C230.051 267.876 172.778 226.043 121.745 205.965C122.657 177.089 126.587 126.885 142.639 96.031C142.639 96.031 169.799 102.519 203.989 129.89C230.964 151.48 262.347 186.11 288.173 240.851Z" stroke="#CCDDE2" stroke-width="2.53286" stroke-miterlimit="10"/>
<path d="M288.862 242.292L287.695 242.031C287.861 241.623 288.007 241.24 288.173 240.851C288.403 241.323 288.62 241.814 288.862 242.292Z" stroke="#CCDDE2" stroke-width="2.53286" stroke-miterlimit="10"/>
<path d="M264.593 354.325V354.261C264.593 354.261 264.593 354.3 264.593 354.325Z" stroke="#CCDDE2" stroke-width="2.53286" stroke-miterlimit="10"/>
<path d="M288.862 242.292L287.695 242.031C287.861 241.623 288.007 241.24 288.173 240.851C288.403 241.323 288.62 241.814 288.862 242.292Z" stroke="#CCDDE2" stroke-width="2.53286" stroke-miterlimit="10"/>
<path opacity="0.9" d="M77.7673 345.259C75.5152 342.51 73.3013 339.696 71.1704 336.838C42.4852 298.675 23.5895 254.065 16.1365 206.909C14.2799 195.355 14.567 188.35 14.567 188.35C14.567 188.35 64.1715 183.322 121.751 205.965C172.791 226.049 230.045 267.851 264.567 354.281V354.351C264.778 354.868 264.995 355.384 265.167 355.92C275.503 382.078 283.707 412.269 289.079 447.154C289.079 447.218 289.079 447.282 289.079 447.352C288.716 447.352 288.371 447.352 288.007 447.352C216.826 447.25 151.909 418.859 102.962 372.476C97.8579 367.647 92.8879 362.6 88.1412 357.375" stroke="#CCDDE2" stroke-width="2.53286" stroke-miterlimit="10"/>
<path d="M264.593 354.325V354.261C264.593 354.261 264.593 354.3 264.593 354.325Z" stroke="#CCDDE2" stroke-width="2.53286" stroke-miterlimit="10"/>
<path opacity="0.9" d="M562.079 188.369C549.747 333.099 432.355 446.72 289.194 447.301C289.277 440.73 291.338 366.441 336.17 299.087C356.22 268.697 383.151 243.46 414.778 225.424C415.678 224.907 416.552 224.416 417.464 223.924C418.568 223.286 419.691 222.699 420.814 222.093C421.101 221.921 421.413 221.774 421.726 221.602C422.83 221.021 423.933 220.441 425.056 219.886C425.637 219.58 426.217 219.248 426.823 218.999C428.029 218.361 429.254 217.78 430.486 217.2C431.717 216.619 432.789 216.102 433.956 215.567L434.371 215.369C435.245 214.96 436.119 214.578 437.012 214.189C438.116 213.672 439.213 213.2 440.336 212.727C443.603 211.311 446.972 209.959 450.404 208.67L451.591 208.217C453.045 207.662 454.5 207.119 455.98 206.609C485.717 196.057 520.782 189.396 562.079 188.369Z" stroke="#CCDDE2" stroke-width="2.53286" stroke-miterlimit="10"/>
<path d="M372.09 130.56C342.85 152.705 309.904 187.616 288.174 240.851C262.347 186.11 230.964 151.48 203.99 129.89C219.94 100.178 256.025 39.836 288.844 11.6045C288.863 11.6045 338.544 60.7177 372.09 130.56Z" stroke="#CCDDE2" stroke-width="2.53286" stroke-miterlimit="10"/>
<path d="M96.7478 288.669C96.7542 288.626 96.7542 288.583 96.7478 288.541C96.7478 288.496 96.7478 288.452 96.7478 288.369C96.7377 288.297 96.7377 288.224 96.7478 288.152C96.7658 288.305 96.7957 288.456 96.8371 288.605C96.8275 288.621 96.8147 288.635 96.7993 288.646C96.7839 288.657 96.7663 288.665 96.7478 288.669Z" fill="white"/>
<path d="M96.984 329.915C95.9994 333.091 94.7422 336.176 93.2262 339.135C92.7923 339.97 92.3649 340.787 91.8927 341.604C90.281 344.629 88.3032 347.444 86.004 349.987C85.5957 349.853 85.1874 349.681 84.8237 349.534C84.7408 349.534 84.6706 349.47 84.6068 349.445C77.1741 346.204 71.5916 340.123 69.9328 333.29C68.4526 327.274 69.786 320.767 66.9278 315.12C63.406 308.166 53.9126 303.815 52.7259 295.955C51.6541 288.605 58.2701 281.861 57.1919 274.665C55.967 266.517 45.9567 261.688 44.1065 253.738C42.9262 248.8 43.9789 243.103 43.5515 238.012C43.0575 232.321 42.0929 226.681 40.6677 221.149C41.3568 221.105 42.0458 221.085 42.7348 221.06C56.7708 220.824 70.6601 228.716 75.2154 239.836C78.8903 248.819 77.021 259.193 81.8953 267.615C82.1906 268.159 82.5209 268.683 82.8842 269.184C83.5237 270.072 84.2116 270.924 84.9449 271.736L86.4953 273.35C86.7505 273.606 87.0312 273.842 87.2864 274.122C87.5416 274.403 87.8223 274.639 88.0839 274.92C90.5083 277.236 92.9837 279.577 94.5915 282.353C94.74 282.593 94.8701 282.845 94.9807 283.105C95.1311 283.357 95.2592 283.622 95.3635 283.896C95.5021 284.177 95.6256 284.464 95.7335 284.758C95.8611 285.077 95.9696 285.396 96.0716 285.747C96.2248 286.263 96.3779 286.755 96.48 287.271C96.48 287.399 96.48 287.508 96.5246 287.616C96.5693 287.724 96.5246 287.699 96.5246 287.744C96.534 287.786 96.534 287.829 96.5246 287.871C96.5339 287.945 96.5488 288.017 96.5693 288.088V288.133C96.5716 288.213 96.5845 288.292 96.6076 288.369V288.369C96.6076 288.452 96.6076 288.496 96.6076 288.541C96.614 288.583 96.614 288.626 96.6076 288.669V288.713L94.9551 312.689C96.0142 318.489 98.6619 324.269 96.984 329.915Z" fill="white"/>
<path d="M109.463 271.717C110.541 266.517 110.624 261.062 113.074 256.099C117.63 246.95 130.938 240.308 144.891 239.881H145.147C146.423 239.881 147.699 239.881 148.975 239.945C147.531 244.701 146.546 249.585 146.033 254.529C145.561 258.932 146.671 263.857 145.453 268.087C143.494 274.958 133.076 279.131 131.812 286.155C130.689 292.382 137.586 298.207 136.451 304.542C135.226 311.33 125.343 315.088 121.694 321.13C118.746 326.011 120.124 331.613 118.599 336.793C116.813 342.701 110.943 347.964 103.217 350.733C102.72 350.906 102.273 351.078 101.775 351.231C101.514 351.295 101.214 351.403 100.959 351.467C100.869 351.403 100.786 351.314 100.678 351.231C98.1834 349.106 95.3889 345.521 93.073 341.661L93.2453 339.211C94.7612 336.252 96.0185 333.168 97.0031 329.992C98.681 324.346 96.0333 318.565 95.0891 312.766L96.7415 288.79L97.2583 288.363C97.447 288.224 97.626 288.072 97.7942 287.91C100.346 285.849 103.102 283.871 105.074 281.53C107.524 278.652 108.666 275.494 109.393 272.183" fill="white"/>
<path d="M109.399 272.062C109.399 271.953 109.444 271.851 109.463 271.717Z" fill="white"/>
<path d="M109.463 271.698C109.463 271.832 109.419 271.934 109.399 272.043C108.672 275.354 107.53 278.512 105.08 281.389C103.109 283.731 100.359 285.708 97.8005 287.769C97.6324 287.932 97.4533 288.084 97.2646 288.222L96.7478 288.669C96.7566 288.642 96.7566 288.613 96.7478 288.586C96.7282 288.512 96.7048 288.44 96.6777 288.369V288.369C96.6676 288.297 96.6676 288.224 96.6777 288.152V288.107C96.6572 288.036 96.6423 287.964 96.633 287.89C96.6424 287.848 96.6424 287.805 96.633 287.763C96.6426 287.743 96.6476 287.721 96.6476 287.699C96.6476 287.677 96.6426 287.655 96.633 287.635C96.617 287.519 96.5935 287.404 96.5628 287.291C96.4607 286.774 96.3076 286.283 96.1545 285.766C96.0524 285.441 95.944 285.096 95.8164 284.777C95.7085 284.483 95.585 284.196 95.4463 283.916C95.3558 283.636 95.227 283.369 95.0635 283.125C94.9529 282.864 94.8228 282.613 94.6743 282.372C93.0666 279.596 90.5911 277.268 88.1667 274.939C87.9052 274.658 87.6308 274.378 87.3692 274.142C87.1077 273.905 86.8333 273.625 86.5781 273.37L85.0278 271.755C84.2945 270.943 83.6065 270.091 82.967 269.203C82.967 269.203 84.3962 244.366 97.0924 236.85C109.08 229.692 109.463 267.506 109.463 271.698Z" fill="white"/>
<path d="M109.399 272.062C109.399 271.953 109.444 271.851 109.463 271.717Z" fill="white"/>
<path d="M96.7287 288.586V288.688C96.7352 288.646 96.7352 288.603 96.7287 288.56C96.7287 288.516 96.7287 288.471 96.7287 288.388C96.7187 288.316 96.7187 288.243 96.7287 288.171C96.7191 288.309 96.7191 288.448 96.7287 288.586V288.586Z" fill="white"/>
<path d="M139.698 247.83C116.813 272.457 106.056 324.39 101.865 351.186C101.52 353.451 101.227 355.518 100.946 357.381" fill="white"/>
<path d="M141.81 372.47L131.283 434.586C131.034 436.283 130.193 437.837 128.909 438.974C127.624 440.111 125.98 440.758 124.265 440.8H69.231C67.5017 440.756 65.8448 440.096 64.5584 438.939C63.2719 437.783 62.4403 436.205 62.213 434.49L52.5027 372.47H141.81Z" fill="white"/>
<path d="M151.807 365.541C151.711 367.381 150.925 369.116 149.605 370.401C148.285 371.685 146.528 372.424 144.687 372.47H49.7719C47.9488 372.426 46.2081 371.702 44.8918 370.44C43.5754 369.178 42.7787 367.469 42.6582 365.65V365.65C42.2563 361.222 45.5547 357.356 49.7719 357.356H144.687C148.86 357.388 152.145 361.12 151.807 365.541Z" fill="white"/>
<path d="M96.7923 288.713C96.7908 288.574 96.7671 288.437 96.7222 288.305L96.7923 288.713Z" fill="white"/>
<path d="M49.759 230.273C71.7254 258.804 82.061 318.955 86.125 350.006C86.4696 352.698 86.763 355.167 87.0246 357.375" fill="white"/>
<path d="M98.7258 260.59C95.976 269.057 95.842 277.606 96.1738 283.022C96.2615 284.771 96.4468 286.513 96.7288 288.241" fill="white"/>
<path d="M96.7478 288.669C96.7542 288.626 96.7542 288.583 96.7478 288.541C96.7478 288.496 96.7478 288.452 96.7478 288.369C96.7377 288.297 96.7377 288.224 96.7478 288.152C96.7658 288.305 96.7957 288.456 96.8371 288.605C96.8275 288.621 96.8147 288.635 96.7993 288.646C96.7839 288.657 96.7663 288.665 96.7478 288.669Z" stroke="#CCDDE2" stroke-width="2.53286" stroke-miterlimit="10"/>
<path d="M96.984 329.915C95.9994 333.091 94.7422 336.176 93.2262 339.135C92.7923 339.97 92.3649 340.787 91.8927 341.604C90.281 344.629 88.3032 347.444 86.004 349.987C85.5957 349.853 85.1874 349.681 84.8237 349.534C84.7408 349.534 84.6706 349.47 84.6068 349.445C77.1741 346.204 71.5916 340.123 69.9328 333.29C68.4526 327.274 69.786 320.767 66.9278 315.12C63.406 308.166 53.9126 303.815 52.7259 295.955C51.6541 288.605 58.2701 281.861 57.1919 274.665C55.967 266.517 45.9567 261.688 44.1065 253.738C42.9262 248.8 43.9789 243.103 43.5515 238.012C43.0575 232.321 42.0929 226.681 40.6677 221.149C41.3568 221.105 42.0458 221.085 42.7348 221.06C56.7708 220.824 70.6601 228.716 75.2154 239.836C78.8903 248.819 77.021 259.193 81.8953 267.615C82.1906 268.159 82.5209 268.683 82.8842 269.184C83.5237 270.072 84.2116 270.924 84.9449 271.736L86.4953 273.35C86.7505 273.606 87.0312 273.842 87.2864 274.122C87.5416 274.403 87.8223 274.639 88.0839 274.92C90.5083 277.236 92.9837 279.577 94.5915 282.353C94.74 282.593 94.8701 282.845 94.9807 283.105C95.1311 283.357 95.2592 283.622 95.3635 283.896C95.5021 284.177 95.6256 284.464 95.7335 284.758C95.8611 285.077 95.9696 285.396 96.0716 285.747C96.2248 286.263 96.3779 286.755 96.48 287.271C96.48 287.399 96.48 287.508 96.5246 287.616C96.5693 287.724 96.5246 287.699 96.5246 287.744C96.534 287.786 96.534 287.829 96.5246 287.871C96.5339 287.945 96.5488 288.017 96.5693 288.088V288.133C96.5716 288.213 96.5845 288.292 96.6076 288.369V288.369C96.6076 288.452 96.6076 288.496 96.6076 288.541C96.614 288.583 96.614 288.626 96.6076 288.669V288.713L94.9551 312.689C96.0142 318.489 98.6619 324.269 96.984 329.915Z" stroke="#CCDDE2" stroke-width="2.53286" stroke-miterlimit="10"/>
<path d="M109.463 271.717C110.541 266.517 110.624 261.062 113.074 256.099C117.63 246.95 130.938 240.308 144.891 239.881H145.147C146.423 239.881 147.699 239.881 148.975 239.945C147.531 244.701 146.546 249.585 146.033 254.529C145.561 258.932 146.671 263.857 145.453 268.087C143.494 274.958 133.076 279.131 131.812 286.155C130.689 292.382 137.586 298.207 136.451 304.542C135.226 311.33 125.343 315.088 121.694 321.13C118.746 326.011 120.124 331.613 118.599 336.793C116.813 342.701 110.943 347.964 103.217 350.733C102.72 350.906 102.273 351.078 101.775 351.231C101.514 351.295 101.214 351.403 100.959 351.467C100.869 351.403 100.786 351.314 100.678 351.231C98.1834 349.106 95.3889 345.521 93.073 341.661L93.2453 339.211C94.7612 336.252 96.0185 333.168 97.0031 329.992C98.681 324.346 96.0333 318.565 95.0891 312.766L96.7415 288.79L97.2583 288.363C97.447 288.224 97.626 288.072 97.7942 287.91C100.346 285.849 103.102 283.871 105.074 281.53C107.524 278.652 108.666 275.494 109.393 272.183" stroke="#CCDDE2" stroke-width="2.53286" stroke-miterlimit="10"/>
<path d="M109.399 272.062C109.399 271.953 109.444 271.851 109.463 271.717" stroke="#CCDDE2" stroke-width="2.53286" stroke-miterlimit="10"/>
<path d="M109.463 271.698C109.463 271.832 109.419 271.934 109.399 272.043C108.672 275.354 107.53 278.512 105.08 281.389C103.109 283.731 100.359 285.708 97.8005 287.769C97.6324 287.932 97.4533 288.084 97.2646 288.222L96.7478 288.669C96.7566 288.642 96.7566 288.613 96.7478 288.586C96.7282 288.512 96.7048 288.44 96.6777 288.369V288.369C96.6676 288.297 96.6676 288.224 96.6777 288.152V288.107C96.6572 288.036 96.6423 287.964 96.633 287.89C96.6424 287.848 96.6424 287.805 96.633 287.763C96.6426 287.743 96.6476 287.721 96.6476 287.699C96.6476 287.677 96.6426 287.655 96.633 287.635C96.617 287.519 96.5935 287.404 96.5628 287.291C96.4607 286.774 96.3076 286.283 96.1545 285.766C96.0524 285.441 95.944 285.096 95.8164 284.777C95.7085 284.483 95.585 284.196 95.4463 283.916C95.3558 283.636 95.227 283.369 95.0635 283.125C94.9529 282.864 94.8228 282.613 94.6743 282.372C93.0666 279.596 90.5911 277.268 88.1667 274.939C87.9052 274.658 87.6308 274.378 87.3692 274.142C87.1077 273.905 86.8333 273.625 86.5781 273.37L85.0278 271.755C84.2945 270.943 83.6065 270.091 82.967 269.203C82.967 269.203 84.3962 244.366 97.0924 236.85C109.08 229.692 109.463 267.506 109.463 271.698Z" stroke="#CCDDE2" stroke-width="2.53286" stroke-miterlimit="10"/>
<path d="M109.399 272.062C109.399 271.953 109.444 271.851 109.463 271.717" stroke="#CCDDE2" stroke-width="2.53286" stroke-miterlimit="10"/>
<path d="M96.7287 288.586V288.688C96.7352 288.646 96.7352 288.603 96.7287 288.56C96.7287 288.516 96.7287 288.471 96.7287 288.388C96.7187 288.316 96.7187 288.243 96.7287 288.171C96.7191 288.309 96.7191 288.448 96.7287 288.586V288.586Z" stroke="#CCDDE2" stroke-width="2.53286" stroke-miterlimit="10"/>
<path d="M139.698 247.83C116.813 272.457 106.056 324.39 101.865 351.186C101.52 353.451 101.227 355.518 100.946 357.381" stroke="#CCDDE2" stroke-width="2.53286" stroke-miterlimit="10"/>
<path d="M141.81 372.47L131.283 434.586C131.034 436.283 130.193 437.837 128.909 438.974C127.624 440.111 125.98 440.758 124.265 440.8H69.231C67.5017 440.756 65.8448 440.096 64.5584 438.939C63.2719 437.783 62.4403 436.205 62.213 434.49L52.5027 372.47H141.81Z" stroke="#CCDDE2" stroke-width="2.53286" stroke-miterlimit="10"/>
<path d="M151.807 365.541C151.711 367.381 150.925 369.116 149.605 370.401C148.285 371.685 146.528 372.424 144.687 372.47H49.7719C47.9488 372.426 46.2081 371.702 44.8918 370.44C43.5754 369.178 42.7787 367.469 42.6582 365.65V365.65C42.2563 361.222 45.5547 357.356 49.7719 357.356H144.687C148.86 357.388 152.145 361.12 151.807 365.541Z" stroke="#CCDDE2" stroke-width="2.53286" stroke-miterlimit="10"/>
<path d="M96.7923 288.713C96.7908 288.574 96.7671 288.437 96.7222 288.305L96.7923 288.713Z" stroke="#CCDDE2" stroke-width="2.53286" stroke-miterlimit="10"/>
<path d="M49.759 230.273C71.7254 258.804 82.061 318.955 86.125 350.006C86.4696 352.698 86.763 355.167 87.0246 357.375" stroke="#CCDDE2" stroke-width="2.53286" stroke-miterlimit="10"/>
<path d="M98.7258 260.59C95.976 269.057 95.842 277.606 96.1738 283.022C96.2615 284.771 96.4468 286.513 96.7288 288.241" stroke="#CCDDE2" stroke-width="2.53286" stroke-miterlimit="10"/>
<path d="M455.98 206.609C454.5 207.12 453.045 207.662 451.591 208.217L450.404 208.67C446.971 209.946 443.603 211.311 440.336 212.728C439.213 213.2 438.116 213.672 437.012 214.189C436.119 214.578 435.245 214.961 434.371 215.369L433.956 215.567C432.789 216.103 431.628 216.638 430.486 217.2C429.343 217.761 428.029 218.38 426.823 218.999C426.185 219.28 425.637 219.58 425.056 219.886C423.933 220.441 422.83 221.022 421.726 221.602C421.413 221.774 421.088 221.921 420.813 222.093C419.691 222.699 418.568 223.299 417.464 223.924C416.552 224.416 415.678 224.907 414.778 225.424C383.151 243.46 356.22 268.697 336.17 299.087C291.338 366.441 289.277 440.723 289.194 447.301L289.086 447.11C283.72 412.243 275.509 382.034 265.192 355.876L266.003 353.215L264.593 354.312C264.593 354.312 264.593 354.312 264.593 354.268C266.615 309.971 275.286 272.936 287.72 242.018L288.888 242.28C288.658 241.801 288.428 241.31 288.199 240.838C309.929 187.603 342.875 152.692 372.115 130.547C406.567 104.465 435.96 96.0182 435.96 96.0182C451.654 115.413 455.227 174.684 455.98 206.609Z" stroke="#CCDDE2" stroke-width="2.53286" stroke-miterlimit="10"/>
<path d="M458.066 435.766C453.49 434.847 449.007 433.75 444.617 432.474C426.613 427.21 405.699 418.227 398.528 399.343C396.734 394.463 396.168 389.217 396.881 384.068C397.594 378.918 399.565 374.024 402.618 369.816C405.852 365.329 410.4 361.956 415.633 360.163C427.021 356.482 439.622 362.217 448.069 370.703C456.516 379.188 461.952 390.111 468.568 400.089C462.583 386.691 456.51 372.904 455.687 358.255C455.049 346.835 458.149 334.452 466.022 325.871C473.27 317.972 490.215 311.79 500.194 317.577C506.778 321.405 509.406 329.545 510.536 337.074C513.636 357.675 509.655 378.608 505.693 399.062C508.354 388.127 511.212 377.089 516.635 367.226C522.058 357.362 530.371 348.647 541.019 344.991C548.477 342.439 557.333 342.714 563.579 347.543C569.404 352.009 572.007 359.621 572.811 366.932C574.151 379.195 571.267 391.629 566.303 402.915C547.782 445.043 496.417 443.422 458.066 435.766Z" fill="white"/>
<path d="M499.855 414.91C499.855 414.91 528.406 422.84 538.486 383.156Z" fill="white"/>
<path d="M487.153 347.173C479.216 365.165 487.153 419.146 487.153 419.146Z" fill="white"/>
<path d="M460.695 413.685C459.502 413.481 448.05 411.879 438.288 407.394C430.728 403.923 424.176 398.717 424.176 391.1" fill="white"/>
<path d="M440.579 391.106C440.579 391.106 429.42 404.115 438.288 407.4Z" fill="white"/>
<path d="M433.172 419.235C434.76 417.028 443.022 421.456 448.42 411.037Z" fill="white"/>
<path d="M483.625 370.99C480.805 368.872 473.417 370.99 472.332 354.051Z" fill="white"/>
<path d="M484.856 386.863C484.856 386.863 497.208 382.397 497.208 372.732Z" fill="white"/>
<path d="M511.403 415.139C511.403 415.139 517.847 398.507 520.495 391.1Z" fill="white"/>
<path d="M531.411 399.247C531.411 399.247 538.487 404.855 546.953 395.859Z" fill="white"/>
<path d="M531.411 391.106C531.411 391.106 526.843 389.122 528.961 377.708Z" fill="white"/>
<path d="M458.066 435.766C453.447 435.128 449 433.756 444.617 432.474C426.613 427.21 405.699 418.227 398.528 399.343C396.734 394.463 396.168 389.217 396.881 384.068C397.594 378.918 399.565 374.024 402.618 369.816C405.852 365.329 410.4 361.956 415.633 360.163C427.021 356.482 439.622 362.217 448.069 370.703C456.516 379.188 461.952 390.111 468.568 400.089C462.583 386.691 456.51 372.904 455.687 358.255C455.049 346.835 458.149 334.452 466.022 325.871C473.27 317.972 490.215 311.79 500.194 317.577C506.778 321.405 509.406 329.545 510.536 337.074C513.636 357.675 509.655 378.608 505.693 399.062C508.354 388.127 511.212 377.089 516.635 367.226C522.058 357.362 530.371 348.647 541.019 344.991C548.477 342.439 557.333 342.714 563.579 347.543C569.404 352.009 572.007 359.621 572.811 366.932C574.15 379.195 571.439 391.712 566.303 402.915C547.482 443.932 495.721 440.832 458.066 435.766Z" stroke="#CCDDE2" stroke-width="2.53286" stroke-miterlimit="10"/>
<path d="M499.855 414.91C499.855 414.91 528.406 422.84 538.486 383.156" stroke="#CCDDE2" stroke-width="2.53286" stroke-miterlimit="10"/>
<path d="M487.153 347.173C479.216 365.165 487.153 419.146 487.153 419.146" stroke="#CCDDE2" stroke-width="2.53286" stroke-miterlimit="10"/>
<path d="M460.695 413.685C459.502 413.481 448.05 411.879 438.288 407.394C430.728 403.923 424.176 398.717 424.176 391.1" stroke="#CCDDE2" stroke-width="2.53286" stroke-miterlimit="10"/>
<path d="M440.579 391.106C440.579 391.106 429.42 404.115 438.288 407.4" stroke="#CCDDE2" stroke-width="2.53286" stroke-miterlimit="10"/>
<path d="M433.172 419.235C434.76 417.028 443.022 421.456 448.42 411.037" stroke="#CCDDE2" stroke-width="2.53286" stroke-miterlimit="10"/>
<path d="M483.625 370.99C480.805 368.872 473.417 370.99 472.332 354.051" stroke="#CCDDE2" stroke-width="2.53286" stroke-miterlimit="10"/>
<path d="M484.856 386.863C484.856 386.863 497.208 382.397 497.208 372.732" stroke="#CCDDE2" stroke-width="2.53286" stroke-miterlimit="10"/>
<path d="M511.403 415.139C511.403 415.139 517.847 398.507 520.495 391.1" stroke="#CCDDE2" stroke-width="2.53286" stroke-miterlimit="10"/>
<path d="M531.411 399.247C531.411 399.247 538.487 404.855 546.953 395.859" stroke="#CCDDE2" stroke-width="2.53286" stroke-miterlimit="10"/>
<path d="M531.411 391.106C531.411 391.106 526.843 389.122 528.961 377.708" stroke="#CCDDE2" stroke-width="2.53286" stroke-miterlimit="10"/>
<path d="M533.357 291.852C539.061 296.768 544.153 302.352 548.522 308.485C556.554 319.465 561.097 332.607 561.563 346.204" stroke="#CCDDE2" stroke-width="2.53286" stroke-miterlimit="10"/>
<path d="M334.384 66.9254C345.868 60.0095 357.843 53.8656 370.578 49.5272C402.331 38.6812 437.733 41.0864 462.89 64.8902C484.697 85.504 495.007 116.128 497.112 145.476C497.112 145.903 497.182 146.356 497.201 146.809C498.165 161.93 497.374 178.626 497.265 195.336" stroke="#CCDDE2" stroke-width="2.53286" stroke-miterlimit="10"/>
<path d="M84.0644 194.411C86.9417 176.043 83.4264 158.766 81.5124 139.862C76.587 90.608 92.2499 31.6759 148.987 24.307C179.815 20.2876 204.838 31.8035 225.681 53.8911C230.364 58.8484 235.047 64.6733 240.004 70.3005" stroke="#CCDDE2" stroke-width="2.53286" stroke-miterlimit="10"/>
<path d="M61.9387 357.075C61.9387 357.075 18.9694 338.152 23.2695 302.596C24.469 292.56 29.1965 283.584 35.1682 275.334" stroke="#CCDDE2" stroke-width="2.53286" stroke-miterlimit="10"/>
<path d="M450.034 380.783C448.401 379.605 446.699 378.486 444.93 377.427C427.283 366.983 403.237 362.932 383.076 361.72C381.845 361.63 380.632 361.567 379.433 361.516C377.844 361.446 376.289 361.03 374.878 360.297C373.415 359.559 372.144 358.491 371.164 357.177C370.175 353.291 368.987 349.458 367.604 345.693L364.772 332.933C363.715 329.242 362.886 325.49 362.29 321.698C359.355 302.513 357.186 278.671 356.42 269.746C356.512 269.785 356.609 269.813 356.707 269.829L365.467 272.636C365.499 272.633 365.531 272.633 365.563 272.636L368.67 273.548C380.715 276.968 393.354 279.533 405.904 279.807C417.732 280.056 430.709 278.116 440.815 271.57C441.666 271.034 442.491 270.46 443.29 269.848C451.087 263.978 456.503 254.97 459.572 245.827C465.219 228.917 466.438 210.841 463.113 193.326C462.17 188.503 460.845 183.763 459.151 179.15C454.685 166.868 448.235 155.359 442.697 143.422C441.421 140.64 439.596 137.724 439.373 134.636C439.105 130.955 440.994 127.414 441.587 123.835C442.278 119.534 442.599 115.182 442.544 110.826C442.536 105.66 441.546 100.541 439.628 95.7439C437.976 91.7117 435.041 84.9489 429.829 85.1978C428.157 79.8513 425.363 73.6627 420.444 72.9673C419.167 72.7717 417.864 73.0881 416.82 73.8477C416.459 73.3305 416.069 72.8342 415.652 72.3612C413.598 70.0516 409.712 67.9718 406.593 69.1712C400.404 71.6211 403.237 80.1384 406.305 86.6014C404.726 86.2613 403.105 86.1539 401.495 86.2824C397.89 86.6014 393.718 88.056 392.32 91.5267C391.561 93.4407 391.829 96.8923 393.769 97.9769C396.231 99.3231 399.256 98.4299 401.718 99.6931C404.468 101.109 405.546 104.906 405.144 107.777C405.066 108.902 404.618 109.97 403.868 110.813C399.517 115.165 396.531 103.157 394.879 101.18C392.633 98.4809 389.341 98.9722 387 101.25C382.374 105.716 384.384 114.712 386.323 120.109C388.429 126.017 391.166 132.231 395.536 136.831C402.803 144.455 403.6 156.609 405.521 166.441C406.312 170.505 407.071 174.607 407.684 178.703C408.896 186.653 409.598 194.653 408.96 202.679C408.798 204.882 408.183 207.028 407.153 208.982C406.122 210.936 404.699 212.656 402.973 214.034C401.246 215.412 399.253 216.418 397.119 216.989C394.985 217.561 392.756 217.684 390.572 217.353C385.373 216.562 379.286 215.618 372.804 214.603C372.804 214.603 372.855 214.552 372.887 214.54C364.051 211.535 356.235 211.164 348.458 210.756C326.517 207.362 306.816 204.172 306.816 204.172C306.367 204.089 305.962 203.853 305.668 203.504C305.375 203.154 305.212 202.714 305.208 202.258L304.94 177.899C306.439 179.737 309.693 179.992 311.684 178.926C312.475 178.523 313.126 177.89 313.55 177.11C313.975 176.33 314.154 175.44 314.063 174.556V174.556C315.354 174.545 316.622 174.219 317.757 173.605C318.094 173.417 318.416 173.204 318.721 172.967C319.351 172.403 319.859 171.715 320.213 170.947C320.567 170.179 320.761 169.347 320.782 168.501C320.809 168.035 320.785 167.566 320.711 167.104C320.711 166.932 320.66 166.766 320.628 166.581C320.558 166.224 320.475 165.873 320.373 165.496C320.322 165.28 320.258 165.063 320.188 164.858C320.022 164.22 319.837 163.582 319.697 162.944C319.771 162.954 319.846 162.954 319.92 162.944C320.55 162.909 321.175 162.819 321.79 162.676C322.374 162.537 322.944 162.345 323.493 162.102C323.801 161.966 324.101 161.812 324.393 161.643C324.443 161.625 324.489 161.597 324.527 161.56C325.02 161.257 325.488 160.914 325.924 160.533C326.072 160.411 326.212 160.281 326.345 160.144C326.594 159.91 326.83 159.663 327.053 159.404C327.338 159.07 327.604 158.72 327.851 158.357C327.971 158.203 328.078 158.039 328.17 157.866C329.055 156.445 329.702 154.889 330.084 153.26C330.115 153.106 330.154 152.953 330.186 152.807C331.462 146.733 329.548 139.798 324.214 137.533C323.149 137.08 319.372 136.64 319.372 135.038C319.373 134.924 319.391 134.81 319.423 134.7C319.417 134.677 319.417 134.653 319.423 134.63C319.523 134.392 319.668 134.176 319.85 133.992C319.933 133.89 320.048 133.788 320.15 133.686C320.373 133.488 320.622 133.303 320.858 133.112C321.1 132.952 321.333 132.777 321.554 132.588C321.647 132.51 321.737 132.427 321.821 132.34C321.987 132.155 322.16 131.97 322.313 131.785C322.465 131.602 322.605 131.41 322.734 131.21C322.868 131.006 323.002 130.802 323.123 130.572C323.256 130.371 323.369 130.157 323.461 129.934C323.653 129.556 323.811 129.161 323.933 128.754C324.148 128.085 324.283 127.394 324.335 126.693C324.335 126.444 324.335 126.189 324.335 125.934C324.335 120.332 319.767 114.533 313.993 113.921C313.06 113.818 312.115 113.93 311.231 114.246C310.796 114.396 310.37 114.571 309.955 114.769L309.317 115.069C308.883 115.273 308.443 115.49 307.99 115.707C307.608 115.889 307.194 115.993 306.771 116.013C306.674 116.01 306.578 115.997 306.484 115.975L306.299 115.924C306.165 115.894 306.043 115.825 305.948 115.726C305.836 115.644 305.743 115.54 305.674 115.42C305.616 115.303 305.575 115.178 305.552 115.05C305.548 115.042 305.546 115.033 305.546 115.024C305.546 115.015 305.548 115.007 305.552 114.999C305.52 114.85 305.505 114.698 305.508 114.546C305.507 114.23 305.552 113.917 305.642 113.614C305.822 112.955 305.912 112.275 305.91 111.592C305.909 111.344 305.892 111.097 305.859 110.852C305.826 110.511 305.775 110.172 305.706 109.837C305.081 107.369 303.597 105.204 301.52 103.732C295.67 99.5974 284.703 99.5783 281.679 107.241C281.615 107.356 281.583 107.477 281.532 107.592C281.143 107.139 280.753 106.666 280.364 106.194C280.095 106.021 279.814 105.868 279.522 105.735C275.471 103.968 269.671 104.727 266.717 108.185C264.268 111.056 263.464 115.49 265.639 118.744C264.419 117.168 262.765 115.984 260.88 115.337C261.105 115.968 261.405 116.57 261.773 117.13C261.6 116.895 261.415 116.669 261.218 116.453C261.065 116.281 260.912 116.128 260.759 115.981C260.605 115.835 260.388 115.624 260.203 115.471C260.018 115.318 259.814 115.152 259.617 114.999C255.82 112.217 250.232 111.93 246.691 115.407C243.922 118.125 243.348 121.883 244.33 125.526C245.313 129.169 247.667 131.702 249.434 134.841C243.443 136.346 238.652 142.988 240.54 149.215C240.935 150.503 241.626 151.68 242.557 152.653C243.489 153.626 244.636 154.367 245.906 154.816C246.361 154.93 246.823 155.009 247.29 155.052C247.446 155.068 247.597 155.116 247.734 155.193C247.871 155.27 247.99 155.375 248.085 155.5C248.179 155.625 248.247 155.768 248.284 155.921C248.32 156.073 248.325 156.231 248.298 156.386C248.203 156.805 248.154 157.232 248.152 157.662C248.155 158.69 248.424 159.699 248.931 160.593C249.439 161.487 250.168 162.235 251.048 162.766C251.179 162.839 251.293 162.938 251.384 163.057C251.476 163.175 251.541 163.312 251.578 163.457C251.614 163.602 251.621 163.753 251.596 163.901C251.572 164.049 251.518 164.19 251.437 164.316C250.55 165.578 250.029 167.06 249.931 168.599C249.833 170.138 250.162 171.674 250.882 173.038C252.854 176.987 257.683 180.413 262.239 179.06C263.704 178.616 264.973 177.681 265.831 176.413C265.922 176.317 266.002 176.209 266.067 176.094C266.083 176.055 266.107 176.021 266.137 175.992C266.793 175.012 267.228 173.902 267.413 172.738C268.535 174.517 269.791 176.208 271.171 177.797L272 178.722L269.48 194.264L269.11 197.065C268.973 198.034 268.491 198.921 267.753 199.563C267.015 200.206 266.069 200.56 265.091 200.561C264.535 200.561 263.961 200.561 263.406 200.561C262.277 200.561 261.16 200.593 260.05 200.625C256.675 200.708 253.313 200.861 249.957 201.065C247.405 201.231 244.911 201.416 242.403 201.639C241.127 201.741 239.902 201.856 238.639 201.99C237.376 202.124 236.125 202.245 234.875 202.379C232.431 202.654 229.969 202.934 227.519 203.26C224.565 203.649 221.63 204.051 218.676 204.472C214.057 205.148 209.451 205.888 204.825 206.686C200.321 207.464 195.836 208.274 191.331 209.097C185.002 210.265 178.61 211.241 172.191 212.287C170.506 212.56 168.782 212.469 167.134 212.022C165.487 211.575 163.954 210.781 162.637 209.694C161.321 208.607 160.252 207.252 159.501 205.719C158.75 204.185 158.335 202.51 158.283 200.803C157.562 179.749 169.486 141.348 169.486 141.348C169.761 138.362 173.314 136.244 175.394 134.547C181.347 129.845 184.862 121.423 186.916 114.335C188.371 109.276 189.749 102.054 185.468 97.9067C183.12 95.6291 179.828 95.1378 177.589 97.8365C175.936 99.8271 172.951 111.821 168.593 107.47C167.844 106.627 167.395 105.559 167.317 104.433C166.941 101.569 167.955 97.7727 170.737 96.35C173.199 95.074 176.224 95.98 178.686 94.6338C180.6 93.5492 180.894 90.0785 180.134 88.1836C178.737 84.7129 174.571 83.2583 170.96 82.9393C169.35 82.8108 167.729 82.9182 166.15 83.2583C169.218 76.7953 172.057 68.278 165.862 65.8345C162.743 64.6031 158.844 66.6766 156.803 68.9862C156.388 69.4593 156 69.9556 155.642 70.4727C154.594 69.7152 153.29 69.3991 152.011 69.5923C147.067 70.2877 144.304 76.4763 142.633 81.8291C137.471 81.5739 134.549 88.2091 132.878 92.2349C130.984 96.872 129.977 101.824 129.911 106.832C129.752 112.16 130.128 117.491 131.034 122.744C131.455 125.009 132.214 127.165 132.757 129.379C133.35 131.791 132.706 134.183 131.831 136.448C128.405 145.119 123.576 153.234 119.952 161.841C116.023 170.949 112.872 180.374 110.535 190.015C106.031 209.046 105.106 229.226 110.369 248.207C120.322 284.075 170.749 272.298 199.638 262.243C211.715 258.045 220.054 254.127 220.054 254.127C220.054 254.127 220.118 256.909 220.118 261.618V262.256C220.086 268.636 219.531 319.535 210.956 356.909L210.669 357.4C210.739 357.349 210.873 357.349 210.956 357.802C210.485 358.823 209.731 359.687 208.783 360.291C207.835 360.895 206.734 361.214 205.61 361.209C185.079 361.126 98.6236 364.042 115.014 419.905C118.083 430.4 126.096 437.131 137.344 441.112C146.276 444.302 157.256 445.687 169.416 445.789H169.499C145.727 450.293 140.196 485.658 166.717 491.004C176.925 493.058 185.009 486.449 194.183 483.629C199.427 482.079 204.886 481.385 210.35 481.574C213.916 481.66 217.472 481.993 220.992 482.57C259.534 488.88 298.645 491.006 337.644 488.911C364.012 487.463 390.891 484.152 415.914 475.328C434.773 468.668 455.47 457.011 464.759 438.962C468.051 432.61 469.752 425.554 469.716 418.4C469.691 401.397 461.831 389.3 450.034 380.783Z" fill="white"/>
<path d="M52.1899 440.155L51.2266 439.243" stroke="#CCDDE2" stroke-width="2.53286" stroke-miterlimit="10"/>
<path d="M367.623 344.762L364.784 331.97C363.729 328.279 362.903 324.527 362.309 320.735C359.374 301.55 357.205 277.714 356.433 268.789L365.582 271.704L362.392 264.603C362.392 264.603 351.884 229.239 372.906 213.666C357.703 208.491 345.523 211.152 331.296 207.879C325.815 206.603 320.029 205.486 313.636 204.44L309.01 203.63C308.825 216.198 300.078 219.05 292.882 220.416C275.164 223.81 262.896 210.884 263.406 199.63C243.737 199.853 224.297 202.449 204.831 205.754C207.345 213.13 212.64 235.23 197.743 261.362L199.657 261.299C211.735 257.094 220.073 253.183 220.073 253.183C220.073 253.183 220.143 255.965 220.143 260.673V261.311C220.111 267.653 219.556 318.591 210.982 355.959C210.344 357.177 210.841 355.678 210.982 357.03C210.461 358.069 210.104 359.182 209.923 360.329L210.337 358.677C208.028 361.988 213.808 366.001 222.159 368.023C243.992 373.357 364.338 382.697 371.132 360.329C371.532 358.995 371.546 357.574 371.171 356.233C370.183 352.352 368.999 348.523 367.623 344.762V344.762Z" fill="#353642"/>
<path d="M210.344 480.611C204.886 480.428 199.433 481.124 194.196 482.672C185.015 485.485 176.919 492.102 166.724 490.041C140.202 484.694 145.74 449.33 169.512 444.826C171.789 444.775 174.067 444.762 176.326 444.762H176.479C187.427 444.762 198.094 445.049 206.848 442.025C206.024 442.784 184.696 461.701 210.344 480.611Z" fill="#0CBDC3"/>
<path d="M308.991 203.604V203.636C308.806 216.205 300.059 219.056 292.863 220.422C275.146 223.816 262.877 210.89 263.387 199.636" stroke="black" stroke-width="2.53286" stroke-miterlimit="10"/>
<path d="M169.531 444.826C145.759 449.33 140.221 484.694 166.743 490.041C176.951 492.101 185.034 485.485 194.215 482.672C199.457 481.123 204.913 480.427 210.376 480.611C213.934 480.709 217.481 481.052 220.992 481.638C259.533 487.961 298.644 490.1 337.644 488.018C364.013 486.563 390.885 483.259 415.907 474.435C434.773 467.768 455.463 456.112 464.753 438.069C468.047 431.715 469.748 424.657 469.71 417.5C469.71 400.478 461.831 388.382 450.06 379.858C448.42 378.678 446.716 377.568 444.956 376.502C427.309 366.058 403.269 362.007 383.108 360.795C381.877 360.712 380.658 360.641 379.465 360.59C377.876 360.525 376.321 360.111 374.91 359.378C373.445 358.643 372.173 357.575 371.196 356.258C370.246 355.011 369.578 353.572 369.238 352.041L367.636 344.768L364.797 331.976L362.309 320.735C359.374 301.55 357.205 277.714 356.433 268.789" stroke="black" stroke-width="2.53286" stroke-miterlimit="10"/>
<path d="M391.447 427.67C383.58 445.655 364.127 439.498 342.754 426.553C329.49 418.521 318.172 417.379 311.492 417.621C320.909 416.779 329.14 413.876 331.455 403.228C333.325 394.577 328.451 386.64 320.016 384.088C340.292 383.195 361.097 384.726 377.596 397.486C377.608 397.486 399.326 409.665 391.447 427.67Z" fill="#0CBDC3"/>
<path d="M319.882 161.936C319.81 161.946 319.737 161.946 319.665 161.936C319.863 162.932 320.239 163.997 320.488 165.056C320.688 165.857 320.774 166.682 320.743 167.506C320.475 171.366 317.738 173.459 314.025 173.561C314.119 174.447 313.943 175.34 313.519 176.124C313.096 176.907 312.445 177.544 311.652 177.95C309.661 178.997 306.401 178.76 304.902 176.917C303.128 174.779 304.009 172.125 305.087 169.784C305.476 168.961 305.865 168.182 306.184 167.474C306.573 166.594 306.912 165.72 307.211 164.827C308.273 161.521 309.096 158.144 309.674 154.721C310.38 151.263 310.847 147.76 311.071 144.238C310.835 143.383 310.988 142.146 310.65 141.252C310.158 139.874 309.271 138.671 308.098 137.795C305.674 136.008 302.446 136.123 299.868 134.541C297.534 133.087 295.693 130.964 294.585 128.448C294.368 127.925 294.164 127.248 293.858 126.661C293.721 126.343 293.514 126.059 293.252 125.832C292.091 124.856 291.414 126.578 290.7 127.248C289.967 127.925 289.099 128.437 288.153 128.752C287.207 129.067 286.205 129.176 285.213 129.073V129.073C284.463 128.974 283.734 128.759 283.05 128.435C282.548 128.162 282.08 127.833 281.653 127.453C281.146 126.96 280.557 126.56 279.911 126.272C278.699 125.819 278.635 127.823 278.463 128.518C278.348 129.119 278.098 129.686 277.732 130.177C277.367 130.667 276.894 131.069 276.351 131.351C275.696 131.673 274.976 131.845 274.246 131.855C273.395 131.889 272.544 131.775 271.732 131.517C270.948 131.284 270.202 130.938 269.518 130.489C269.396 130.407 269.252 130.36 269.104 130.355C268.957 130.35 268.81 130.386 268.682 130.46C268.554 130.534 268.449 130.642 268.379 130.772C268.309 130.903 268.277 131.05 268.287 131.198C268.523 137.795 262.354 140.091 259.821 140.768C258.97 151.655 261.63 162.529 267.413 171.794C267.199 173.134 266.653 174.4 265.824 175.475C261.658 176.521 256.848 175.385 255.042 171.794C253.128 167.966 253.39 162.664 256.363 159.933C254.302 159.614 253.728 156.571 254.908 154.784C255.01 154.612 255.055 154.51 254.991 154.344C254.736 153.649 251.705 153.068 250.876 152.813C249.692 152.391 248.624 151.698 247.756 150.789C246.887 149.881 246.243 148.783 245.874 147.581C244.12 141.795 248.573 135.619 254.136 134.222C252.484 131.3 250.308 128.939 249.383 125.564C248.458 122.189 248.981 118.68 251.559 116.128C252.607 115.131 253.888 114.411 255.285 114.035C256.682 113.658 258.151 113.636 259.559 113.972C260.38 114.568 261.107 115.284 261.716 116.096C261.341 115.542 261.041 114.942 260.822 114.31C262.71 114.951 264.366 116.136 265.582 117.717C263.406 114.463 264.217 110.022 266.66 107.151C269.614 103.693 275.42 102.934 279.465 104.708C279.757 104.84 280.041 104.991 280.313 105.161C280.696 105.639 281.085 106.111 281.474 106.564C281.517 106.442 281.568 106.323 281.628 106.207C282.449 107.051 283.226 107.937 283.956 108.861C286.585 101.384 297.029 101.365 302.548 105.263C303.847 106.19 304.912 107.41 305.655 108.823C305.935 110.065 305.91 111.356 305.584 112.587C305.246 113.767 305.514 114.661 306.273 114.916C306.845 115.055 307.447 114.978 307.964 114.699C309.987 113.787 311.658 112.67 314.006 112.925C321.662 113.736 327.245 123.688 322.708 130.183C322.439 130.587 322.134 130.965 321.796 131.312C321.158 131.95 319.723 132.697 319.404 133.609C319.395 133.632 319.395 133.657 319.404 133.679C318.829 135.593 323.066 136.021 324.195 136.512C334.199 140.729 332.087 161.298 319.882 161.936Z" fill="#0CBDC3"/>
<path d="M145.963 110.061C143.583 104.995 145.325 97.894 148.037 92.5284C150.11 88.3622 148.458 81.6824 143.162 80.9359C137.663 80.1958 134.588 87.1309 132.871 91.3162C130.974 95.9547 129.965 100.909 129.898 105.92C129.757 111.25 130.149 116.58 131.066 121.832C131.487 124.09 132.246 126.253 132.782 128.461C133.375 130.872 132.731 133.271 131.857 135.53C128.431 144.2 123.608 152.315 119.977 160.922C116.054 170.032 112.906 179.457 110.567 189.096C106.063 208.128 105.131 228.308 110.395 247.288C120.347 283.156 170.781 271.379 199.664 261.324C211.741 257.12 220.08 253.209 220.08 253.209C220.08 253.209 220.15 255.99 220.15 260.699C220.15 260.916 220.15 261.139 220.15 261.337C220.188 280.266 219.429 327.829 211.275 356.086C210.922 357.305 210.181 358.375 209.164 359.134C208.147 359.893 206.91 360.299 205.642 360.291C185.111 360.208 98.6618 363.123 115.046 418.955C120.583 437.814 142.027 444.596 169.422 444.832H169.544C171.77 444.832 174.048 444.832 176.357 444.768H176.511C186.687 444.415 196.836 443.497 206.911 442.018C242.601 436.991 280.575 426.26 305.106 418.527C306.52 418.154 307.966 417.913 309.425 417.806C310.031 417.736 310.701 417.685 311.454 417.653H311.518C318.185 417.385 329.503 418.527 342.78 426.585C364.153 439.53 383.612 445.687 391.472 427.702C399.332 409.716 377.608 397.486 377.608 397.486C361.109 384.726 340.304 383.214 320.029 384.088C313.77 384.362 307.543 384.886 301.527 385.364C277.449 387.282 253.366 389.196 229.279 391.106L197.724 393.658" stroke="black" stroke-width="2.53286" stroke-miterlimit="10"/>
<path d="M154.544 106.679C154.544 106.679 151.106 99.7314 155.361 88.8663C157.115 84.4003 159.138 78.9964 158.309 74.103C158.049 72.2913 157.086 70.6547 155.629 69.5476C154.581 68.7892 153.277 68.4751 151.999 68.6736C147.061 69.3626 144.292 75.5576 142.62 80.904" stroke="black" stroke-width="2.53286" stroke-miterlimit="10"/>
<path d="M161.728 102.647C161.728 102.647 158.462 97.1156 162.915 88.6111C163.661 87.1947 164.925 84.9298 166.105 82.3523C169.18 75.8893 172.013 67.372 165.818 64.9221C162.698 63.6908 158.8 65.7643 156.758 68.0802C156.343 68.5511 155.956 69.0453 155.597 69.5604" stroke="black" stroke-width="2.53286" stroke-miterlimit="10"/>
<path d="M166.124 82.314C167.703 81.9708 169.324 81.8633 170.935 81.995C174.546 82.314 178.712 83.7622 180.115 87.2393C180.875 89.1533 180.6 92.6049 178.661 93.6831C176.198 95.0357 173.18 94.1425 170.718 95.4057C167.968 96.8221 166.89 100.618 167.292 103.489C167.37 104.615 167.818 105.683 168.568 106.526C172.919 110.877 175.905 98.8701 177.557 96.8923C179.803 94.1935 183.089 94.6784 185.436 96.9561C189.724 101.103 188.339 108.319 186.878 113.385C184.83 120.473 181.315 128.894 175.394 133.59C173.276 135.262 169.754 137.418 169.486 140.404C169.486 140.404 157.562 178.78 158.277 199.853C158.329 201.558 158.744 203.234 159.494 204.766C160.245 206.299 161.313 207.654 162.629 208.741C163.945 209.827 165.477 210.621 167.124 211.069C168.771 211.517 170.494 211.608 172.179 211.337C178.559 210.297 184.977 209.321 191.319 208.147C195.823 207.324 200.308 206.513 204.812 205.735C224.839 202.328 244.834 199.68 265.078 199.591C266.056 199.593 267.002 199.24 267.741 198.599C268.48 197.957 268.962 197.07 269.097 196.101L269.48 193.326L272 177.752" stroke="black" stroke-width="2.53286" stroke-miterlimit="10"/>
<path d="M426.485 113.436C428.865 108.37 427.123 101.269 424.412 95.9034C422.319 91.7373 423.991 85.0574 429.286 84.311C429.471 84.311 429.656 84.279 429.828 84.279C435.041 84.0238 437.976 90.793 439.628 94.8252C441.549 99.6221 442.541 104.74 442.55 109.908C442.599 114.263 442.277 118.615 441.587 122.916C441 126.489 439.105 130.036 439.379 133.711C439.596 136.799 441.421 139.721 442.703 142.503C448.235 154.414 454.71 165.918 459.151 178.231C460.844 182.842 462.169 187.58 463.113 192.401C466.447 209.912 465.239 227.984 459.604 244.896C456.529 254.044 451.119 263.053 443.322 268.923C442.514 269.531 441.687 270.105 440.84 270.645C430.734 277.191 417.758 279.131 405.935 278.875C393.38 278.607 380.747 276.043 368.695 272.617C366.59 272.013 364.493 271.375 362.405 270.703C360.21 270.007 358.034 269.299 355.859 268.559C353.581 267.768 351.303 266.97 349.045 266.128" stroke="black" stroke-width="2.53286" stroke-miterlimit="10"/>
<path d="M429.829 84.279C428.157 78.9326 425.363 72.7376 420.45 72.0486C419.172 71.8501 417.867 72.1642 416.82 72.9226C415.362 74.0297 414.4 75.6663 414.14 77.478C413.311 82.3714 415.333 87.7689 417.088 92.2413C421.343 103.087 417.898 110.061 417.898 110.061" stroke="black" stroke-width="2.53286" stroke-miterlimit="10"/>
<path d="M416.82 72.9227C416.462 72.3995 416.061 71.9146 415.659 71.4361C413.598 69.1266 409.719 67.0531 406.593 68.2844C400.404 70.728 403.237 79.2516 406.312 85.7146C407.524 88.2666 408.787 90.557 409.502 91.9734C413.968 100.491 410.682 106.009 410.682 106.009" stroke="black" stroke-width="2.53286" stroke-miterlimit="10"/>
<path d="M406.312 85.7146C404.733 85.3724 403.112 85.2628 401.501 85.3892C397.89 85.7146 393.724 87.1628 392.32 90.6399C391.561 92.5539 391.836 96.0055 393.775 97.0838C396.238 98.4363 399.256 97.5367 401.718 98.8064C404.468 100.223 405.546 104.019 405.144 106.89C405.066 108.015 404.618 109.083 403.868 109.927C399.517 114.278 396.531 102.271 394.879 100.293C392.633 97.5878 389.347 98.079 387 100.357C382.374 104.823 384.384 113.819 386.323 119.222C388.435 125.124 391.166 131.344 395.536 135.938C402.809 143.594 403.6 155.716 405.527 165.548C406.318 169.618 407.077 173.714 407.684 177.816C408.896 185.759 409.598 193.766 408.96 201.792C408.797 203.996 408.181 206.142 407.15 208.096C406.119 210.05 404.696 211.77 402.969 213.148C401.242 214.526 399.248 215.532 397.114 216.103C394.98 216.674 392.75 216.798 390.566 216.466C362.035 212.096 306.816 203.221 306.816 203.221C306.364 203.144 305.954 202.909 305.657 202.559C305.361 202.209 305.198 201.766 305.195 201.307L304.927 176.942" stroke="black" stroke-width="2.53286" stroke-miterlimit="10"/>
<path d="M259.795 140.748C258.627 153.298 262.985 167.487 271.151 176.84C286.387 194.264 299.223 176.84 299.223 176.84" stroke="black" stroke-width="2.53286" stroke-miterlimit="10"/>
<path d="M311.237 144.64C310.79 143.811 311.052 142.311 310.669 141.259C310.175 139.88 309.288 138.676 308.117 137.794C305.68 136.014 302.458 136.123 299.887 134.553C297.552 133.093 295.707 130.966 294.592 128.448C294.234 127.644 293.954 126.419 293.271 125.838C292.103 124.862 291.427 126.578 290.719 127.255C289.708 128.196 288.438 128.813 287.073 129.025C285.708 129.236 284.311 129.033 283.063 128.441C281.915 127.874 281.117 126.731 279.918 126.279C278.718 125.826 278.642 127.822 278.463 128.524C278.349 129.125 278.101 129.692 277.737 130.183C277.374 130.675 276.905 131.078 276.364 131.363C274.252 132.403 271.368 131.721 269.531 130.489C269.408 130.404 269.263 130.356 269.114 130.35C268.964 130.344 268.816 130.381 268.686 130.455C268.557 130.53 268.451 130.64 268.381 130.773C268.312 130.905 268.281 131.055 268.293 131.204C268.58 139.498 258.755 140.984 258.755 140.984" stroke="black" stroke-width="2.53286" stroke-miterlimit="10"/>
<path d="M273.659 159.002C278.571 159.002 282.553 155.02 282.553 150.108C282.553 145.196 278.571 141.214 273.659 141.214C268.747 141.214 264.765 145.196 264.765 150.108C264.765 155.02 268.747 159.002 273.659 159.002Z" stroke="black" stroke-width="2.53286" stroke-miterlimit="10"/>
<path d="M296.71 158.21C301.622 158.21 305.604 154.229 305.604 149.317C305.604 144.405 301.622 140.423 296.71 140.423C291.798 140.423 287.816 144.405 287.816 149.317C287.816 154.229 291.798 158.21 296.71 158.21Z" stroke="black" stroke-width="2.53286" stroke-miterlimit="10"/>
<path d="M269.939 151.001C269.939 151.001 273.525 155.116 277.212 151.001" stroke="black" stroke-width="2.53286" stroke-miterlimit="10"/>
<path d="M293.086 151.001C293.086 151.001 296.672 155.116 300.366 151.001" stroke="black" stroke-width="2.53286" stroke-miterlimit="10"/>
<path d="M286.253 170.62C287.983 170.62 289.386 169.217 289.386 167.487C289.386 165.757 287.983 164.354 286.253 164.354C284.523 164.354 283.12 165.757 283.12 167.487C283.12 169.217 284.523 170.62 286.253 170.62Z" stroke="black" stroke-width="2.53286" stroke-miterlimit="10"/>
<path d="M282.553 150.108C282.553 150.108 284.569 146.822 287.816 149.317" stroke="black" stroke-width="2.53286" stroke-miterlimit="10"/>
<path d="M278.463 136.908C278.463 136.908 269.231 129.851 261.492 136.506" stroke="black" stroke-width="2.53286" stroke-miterlimit="10"/>
<path d="M305.476 133.207C305.476 133.207 294.509 129.379 289.213 138.088" stroke="black" stroke-width="2.53286" stroke-miterlimit="10"/>
<path d="M267.119 171.487C267.098 172.966 266.612 174.4 265.73 175.588C264.849 176.775 263.616 177.655 262.207 178.103C257.651 179.45 252.828 176.03 250.85 172.081C250.129 170.716 249.8 169.178 249.899 167.637C249.998 166.097 250.522 164.614 251.412 163.353C251.491 163.227 251.544 163.085 251.567 162.938C251.59 162.791 251.583 162.64 251.546 162.496C251.509 162.351 251.443 162.216 251.352 162.098C251.261 161.98 251.147 161.881 251.016 161.809C250.131 161.276 249.398 160.523 248.891 159.623C248.383 158.723 248.117 157.706 248.12 156.673C248.122 156.244 248.169 155.816 248.26 155.397C248.289 155.242 248.286 155.082 248.25 154.929C248.214 154.775 248.146 154.631 248.051 154.505C247.956 154.379 247.836 154.274 247.699 154.197C247.561 154.12 247.409 154.072 247.252 154.057C246.788 154.015 246.327 153.938 245.874 153.827C244.605 153.377 243.458 152.636 242.526 151.663C241.595 150.691 240.904 149.513 240.508 148.226C238.594 141.999 243.411 135.351 249.402 133.852C247.616 130.713 245.249 128.18 244.298 124.537C243.347 120.894 243.896 117.13 246.659 114.412C250.965 110.195 258.27 111.509 261.741 116.134C259.399 112.625 260.274 107.84 262.908 104.765C266.098 101.052 272.319 100.242 276.677 102.13C278.75 103.043 280.083 104.931 281.5 106.596C284.333 98.583 295.536 98.532 301.495 102.73C304.595 104.944 306.599 108.957 305.61 112.619C305.087 114.476 306.05 115.586 307.99 114.731C309.929 113.876 311.684 112.702 314.031 112.957C322.16 113.818 327.933 124.952 321.821 131.344C321.183 132.021 319.748 132.729 319.429 133.641C318.733 135.555 323.053 136.053 324.201 136.544C334.294 140.78 332.08 161.566 319.735 161.987C320.105 163.755 320.947 165.713 320.813 167.538C320.545 171.398 317.808 173.491 314.095 173.612C314.186 174.495 314.008 175.384 313.585 176.164C313.161 176.944 312.512 177.578 311.722 177.982C309.731 179.041 306.471 178.792 304.972 176.949C302.573 174.052 305.036 170.256 306.248 167.487C308.034 163.436 308.915 159.065 309.725 154.727C310.466 151.132 310.944 147.488 311.154 143.824V143.67" stroke="black" stroke-width="2.53286" stroke-miterlimit="10"/>
<path d="M7.8999 440.156H137.561" stroke="black" stroke-width="2.53286" stroke-miterlimit="10"/>
<path d="M463.828 440.156H582.1" stroke="black" stroke-width="2.53286" stroke-miterlimit="10"/>
</svg>
