<svg width="58" height="56" viewBox="0 0 58 56" fill="none" xmlns="http://www.w3.org/2000/svg">
<path fill-rule="evenodd" clip-rule="evenodd" d="M38.3617 11.9879C38.1192 11.5323 37.5206 11.3584 37.0957 11.6514C23.2545 21.196 12.027 21.5806 7.50791 20.5477C7.50791 20.5477 7.63378 24.4871 8.29821 26.87C8.87683 28.9452 10.845 32.2007 11.3438 33.0071C11.4194 33.1293 11.5378 33.2251 11.6047 33.3523C11.7051 33.5433 11.7656 33.8762 11.8465 34.3211C12.1813 36.1634 12.8651 39.925 18.1769 43.4662C24.5653 47.7252 22.7719 52.5154 21.9586 54.6875C21.8665 54.9337 21.7869 55.1463 21.7332 55.3206H5.92733C2.87205 55.3206 0.395264 52.8439 0.395264 49.7886V5.92721C0.395264 2.87194 2.87205 0.39515 5.92733 0.39515L51.3693 0.395149C54.4246 0.395149 56.9014 2.87194 56.9014 5.92721V21.7331V49.7886C56.9014 52.8439 54.4246 55.3206 51.3693 55.3206H31.6119C31.8753 52.9498 31.849 46.3113 37.5391 41.8856C43.0854 37.5718 45.2029 31.4059 44.6964 28.2915C44.6782 28.179 44.7762 28.0786 44.89 28.0852C47.0097 28.2078 51.7512 25.0718 51.3693 18.9671C50.994 12.9689 46.8222 14.8974 44.9523 16.684C44.758 16.8696 44.4904 16.9678 44.2286 16.9074C41.2656 16.2241 39.2962 13.7441 38.3617 11.9879Z" fill="black"/>
<path d="M7.50791 20.5477C12.027 21.5806 23.2545 21.196 37.0957 11.6514C37.5206 11.3584 38.1192 11.5323 38.3617 11.9879C39.2962 13.7441 41.2656 16.2241 44.2286 16.9074C44.4904 16.9678 44.758 16.8696 44.9523 16.684C46.8222 14.8974 50.994 12.9689 51.3693 18.9671C51.7512 25.0718 47.0097 28.2078 44.89 28.0852C44.7762 28.0786 44.6782 28.179 44.6964 28.2915C45.2029 31.4059 43.0854 37.5718 37.5391 41.8856M7.50791 20.5477C7.50791 20.5477 7.63378 24.4871 8.29821 26.87C8.87683 28.9452 10.845 32.2007 11.3438 33.0071C11.4194 33.1293 11.5378 33.2251 11.6047 33.3523C11.7051 33.5433 11.7656 33.8762 11.8465 34.3211C12.1813 36.1634 12.8651 39.925 18.1769 43.4662M7.50791 20.5477C5.92732 18.0187 5.66388 13.1716 6.32246 11.0641M18.1769 43.4662C24.5653 47.7252 22.7719 52.5154 21.9586 54.6875C21.8665 54.9337 21.7869 55.1463 21.7332 55.3206M18.1769 43.4662C26.396 47.2596 34.6414 43.8614 37.5391 41.8856M21.7332 55.3206H5.92733C2.87205 55.3206 0.395264 52.8439 0.395264 49.7886V5.92721C0.395264 2.87194 2.87205 0.39515 5.92733 0.39515L51.3693 0.395149C54.4246 0.395149 56.9014 2.87194 56.9014 5.92721V21.7331V49.7886C56.9014 52.8439 54.4246 55.3206 51.3693 55.3206H31.6119M21.7332 55.3206H31.6119M31.6119 55.3206C31.8753 52.9498 31.849 46.3113 37.5391 41.8856" stroke="black" stroke-width="0.790295"/>
<path d="M29.241 36.1582C30.6535 36.2884 33.6584 35.8776 34.3779 33.1924" stroke="black" stroke-width="0.790295" stroke-linecap="round"/>
<path d="M46.8252 23.7088C47.6442 22.5507 49.196 20.9428 47.4179 18.1768" stroke="black" stroke-width="0.790295" stroke-linecap="round"/>
<path d="M30.0312 20.5477C31.4423 18.5719 32.6729 15.964 38.7245 18.1768" stroke="black" stroke-width="0.790295" stroke-linecap="round"/>
<path d="M9.87891 26.4749C11.2899 24.4991 13.0401 21.338 18.177 23.3137" stroke="black" stroke-width="0.790295" stroke-linecap="round"/>
<ellipse cx="35.9586" cy="24.8943" rx="1.97574" ry="2.76603" fill="black"/>
<ellipse cx="16.9914" cy="28.8458" rx="1.97574" ry="2.76603" fill="black"/>
<path d="M22.1283 28.8458C20.2053 30.2321 21.9526 33.2023 24.0985 32.195L24.4992 32.0069" stroke="black" stroke-width="0.790295" stroke-linecap="round"/>
</svg>
